<mxfile host="app.diagrams.net" agent="Mozilla/5.0 (Windows NT 10.0; Win64; x64) AppleWebKit/537.36 (KHTML, like Gecko) Chrome/141.0.0.0 Safari/537.36" version="28.1.0" pages="3">
  <diagram name="Page-1" id="9PKbU9d-w66VoaccJriG">
    <mxGraphModel dx="-2854" dy="2520" grid="1" gridSize="10" guides="1" tooltips="1" connect="1" arrows="1" fold="1" page="1" pageScale="1" pageWidth="850" pageHeight="1100" math="0" shadow="0">
      <root>
        <mxCell id="0" />
        <mxCell id="1" parent="0" />
        <mxCell id="kAF0l4YlWFacwhJHd3Re-644" value="" style="rounded=0;whiteSpace=wrap;html=1;fillColor=#60a917;strokeColor=#2D7600;fillStyle=cross-hatch;fontColor=#ffffff;" vertex="1" parent="1">
          <mxGeometry x="5692" y="680" width="948" height="140" as="geometry" />
        </mxCell>
        <mxCell id="kAF0l4YlWFacwhJHd3Re-483" value="&lt;h3&gt;&lt;br&gt;&lt;/h3&gt;&lt;h3&gt;&lt;br&gt;&lt;/h3&gt;&lt;h3&gt;GBS Synth&lt;/h3&gt;" style="rounded=1;whiteSpace=wrap;html=1;" vertex="1" parent="1">
          <mxGeometry x="6260" y="691.22" width="180" height="112.52" as="geometry" />
        </mxCell>
        <mxCell id="kAF0l4YlWFacwhJHd3Re-484" value="" style="rounded=0;whiteSpace=wrap;html=1;fillColor=#e51400;fontColor=#ffffff;strokeColor=#B20000;fillStyle=cross-hatch;" vertex="1" parent="1">
          <mxGeometry x="5400" y="-400" width="1240" height="1020" as="geometry" />
        </mxCell>
        <mxCell id="kAF0l4YlWFacwhJHd3Re-485" value="&lt;h1&gt;&lt;br&gt;&lt;/h1&gt;" style="rounded=1;whiteSpace=wrap;html=1;" vertex="1" parent="1">
          <mxGeometry x="5665" y="-390" width="930" height="90" as="geometry" />
        </mxCell>
        <mxCell id="kAF0l4YlWFacwhJHd3Re-486" style="edgeStyle=orthogonalEdgeStyle;rounded=0;orthogonalLoop=1;jettySize=auto;html=1;exitX=0.5;exitY=1;exitDx=0;exitDy=0;entryX=0.5;entryY=0;entryDx=0;entryDy=0;curved=1;" edge="1" parent="1" source="kAF0l4YlWFacwhJHd3Re-488" target="kAF0l4YlWFacwhJHd3Re-553">
          <mxGeometry relative="1" as="geometry" />
        </mxCell>
        <mxCell id="kAF0l4YlWFacwhJHd3Re-487" style="edgeStyle=orthogonalEdgeStyle;rounded=0;orthogonalLoop=1;jettySize=auto;html=1;exitX=0.5;exitY=1;exitDx=0;exitDy=0;entryX=0.5;entryY=0;entryDx=0;entryDy=0;curved=1;" edge="1" parent="1" source="kAF0l4YlWFacwhJHd3Re-488" target="kAF0l4YlWFacwhJHd3Re-555">
          <mxGeometry relative="1" as="geometry" />
        </mxCell>
        <mxCell id="kAF0l4YlWFacwhJHd3Re-488" value="Webcam" style="rounded=1;whiteSpace=wrap;html=1;" vertex="1" parent="1">
          <mxGeometry x="5675" y="-340" width="120" height="20" as="geometry" />
        </mxCell>
        <mxCell id="kAF0l4YlWFacwhJHd3Re-489" style="edgeStyle=orthogonalEdgeStyle;rounded=0;orthogonalLoop=1;jettySize=auto;html=1;exitX=0.5;exitY=1;exitDx=0;exitDy=0;curved=1;entryX=0.5;entryY=0;entryDx=0;entryDy=0;" edge="1" parent="1" source="kAF0l4YlWFacwhJHd3Re-492" target="kAF0l4YlWFacwhJHd3Re-553">
          <mxGeometry relative="1" as="geometry">
            <mxPoint x="5940" y="-110" as="targetPoint" />
          </mxGeometry>
        </mxCell>
        <mxCell id="kAF0l4YlWFacwhJHd3Re-490" style="edgeStyle=orthogonalEdgeStyle;rounded=0;orthogonalLoop=1;jettySize=auto;html=1;exitX=0.5;exitY=1;exitDx=0;exitDy=0;curved=1;entryX=0.5;entryY=0;entryDx=0;entryDy=0;" edge="1" parent="1" source="kAF0l4YlWFacwhJHd3Re-492" target="kAF0l4YlWFacwhJHd3Re-555">
          <mxGeometry relative="1" as="geometry">
            <mxPoint x="6320" y="-110" as="targetPoint" />
          </mxGeometry>
        </mxCell>
        <mxCell id="kAF0l4YlWFacwhJHd3Re-491" style="edgeStyle=orthogonalEdgeStyle;rounded=0;orthogonalLoop=1;jettySize=auto;html=1;exitX=0.5;exitY=0;exitDx=0;exitDy=0;entryX=0.15;entryY=0.993;entryDx=0;entryDy=0;entryPerimeter=0;" edge="1" parent="1" source="kAF0l4YlWFacwhJHd3Re-492" target="kAF0l4YlWFacwhJHd3Re-643">
          <mxGeometry relative="1" as="geometry">
            <mxPoint x="6310" y="-620" as="targetPoint" />
            <Array as="points">
              <mxPoint x="5995" y="-440" />
              <mxPoint x="6310" y="-440" />
              <mxPoint x="6310" y="-536" />
            </Array>
          </mxGeometry>
        </mxCell>
        <mxCell id="kAF0l4YlWFacwhJHd3Re-492" value="HDMI USB Capture with pass thru" style="rounded=1;whiteSpace=wrap;html=1;" vertex="1" parent="1">
          <mxGeometry x="5935" y="-370" width="120" height="50" as="geometry" />
        </mxCell>
        <mxCell id="kAF0l4YlWFacwhJHd3Re-493" style="edgeStyle=orthogonalEdgeStyle;rounded=0;orthogonalLoop=1;jettySize=auto;html=1;exitX=0.5;exitY=1;exitDx=0;exitDy=0;entryX=0.5;entryY=0;entryDx=0;entryDy=0;curved=1;" edge="1" parent="1" source="kAF0l4YlWFacwhJHd3Re-495" target="kAF0l4YlWFacwhJHd3Re-553">
          <mxGeometry relative="1" as="geometry" />
        </mxCell>
        <mxCell id="kAF0l4YlWFacwhJHd3Re-494" style="edgeStyle=orthogonalEdgeStyle;rounded=0;orthogonalLoop=1;jettySize=auto;html=1;exitX=0.5;exitY=1;exitDx=0;exitDy=0;entryX=0.5;entryY=0;entryDx=0;entryDy=0;curved=1;" edge="1" parent="1" source="kAF0l4YlWFacwhJHd3Re-495" target="kAF0l4YlWFacwhJHd3Re-555">
          <mxGeometry relative="1" as="geometry" />
        </mxCell>
        <mxCell id="kAF0l4YlWFacwhJHd3Re-495" value="Composite USB Cap." style="rounded=1;whiteSpace=wrap;html=1;" vertex="1" parent="1">
          <mxGeometry x="5805" y="-340" width="120" height="20" as="geometry" />
        </mxCell>
        <mxCell id="kAF0l4YlWFacwhJHd3Re-496" style="edgeStyle=orthogonalEdgeStyle;rounded=0;orthogonalLoop=1;jettySize=auto;html=1;exitX=0.5;exitY=1;exitDx=0;exitDy=0;curved=1;entryX=0.5;entryY=0;entryDx=0;entryDy=0;" edge="1" parent="1" source="kAF0l4YlWFacwhJHd3Re-498" target="kAF0l4YlWFacwhJHd3Re-553">
          <mxGeometry relative="1" as="geometry">
            <mxPoint x="5940" y="-110" as="targetPoint" />
          </mxGeometry>
        </mxCell>
        <mxCell id="kAF0l4YlWFacwhJHd3Re-497" style="edgeStyle=orthogonalEdgeStyle;rounded=0;orthogonalLoop=1;jettySize=auto;html=1;exitX=0.5;exitY=1;exitDx=0;exitDy=0;entryX=0.5;entryY=0;entryDx=0;entryDy=0;curved=1;" edge="1" parent="1" source="kAF0l4YlWFacwhJHd3Re-498" target="kAF0l4YlWFacwhJHd3Re-555">
          <mxGeometry relative="1" as="geometry" />
        </mxCell>
        <mxCell id="kAF0l4YlWFacwhJHd3Re-498" value="Metaballs" style="rounded=1;whiteSpace=wrap;html=1;" vertex="1" parent="1">
          <mxGeometry x="6065" y="-340" width="120" height="20" as="geometry" />
        </mxCell>
        <mxCell id="kAF0l4YlWFacwhJHd3Re-499" style="edgeStyle=orthogonalEdgeStyle;rounded=0;orthogonalLoop=1;jettySize=auto;html=1;exitX=0.5;exitY=1;exitDx=0;exitDy=0;entryX=0.5;entryY=0;entryDx=0;entryDy=0;curved=1;" edge="1" parent="1" source="kAF0l4YlWFacwhJHd3Re-501" target="kAF0l4YlWFacwhJHd3Re-553">
          <mxGeometry relative="1" as="geometry">
            <mxPoint x="5940" y="-100" as="targetPoint" />
          </mxGeometry>
        </mxCell>
        <mxCell id="kAF0l4YlWFacwhJHd3Re-500" style="edgeStyle=orthogonalEdgeStyle;rounded=0;orthogonalLoop=1;jettySize=auto;html=1;exitX=0.5;exitY=1;exitDx=0;exitDy=0;entryX=0.5;entryY=0;entryDx=0;entryDy=0;curved=1;" edge="1" parent="1" source="kAF0l4YlWFacwhJHd3Re-501" target="kAF0l4YlWFacwhJHd3Re-555">
          <mxGeometry relative="1" as="geometry" />
        </mxCell>
        <mxCell id="kAF0l4YlWFacwhJHd3Re-501" value="Plasma" style="rounded=1;whiteSpace=wrap;html=1;" vertex="1" parent="1">
          <mxGeometry x="6195" y="-340" width="120" height="20" as="geometry" />
        </mxCell>
        <mxCell id="kAF0l4YlWFacwhJHd3Re-502" style="edgeStyle=orthogonalEdgeStyle;rounded=0;orthogonalLoop=1;jettySize=auto;html=1;exitX=0.5;exitY=1;exitDx=0;exitDy=0;entryX=0.5;entryY=0;entryDx=0;entryDy=0;curved=1;" edge="1" parent="1" source="kAF0l4YlWFacwhJHd3Re-504" target="kAF0l4YlWFacwhJHd3Re-553">
          <mxGeometry relative="1" as="geometry" />
        </mxCell>
        <mxCell id="kAF0l4YlWFacwhJHd3Re-503" style="edgeStyle=orthogonalEdgeStyle;rounded=0;orthogonalLoop=1;jettySize=auto;html=1;exitX=0.5;exitY=1;exitDx=0;exitDy=0;curved=1;" edge="1" parent="1" source="kAF0l4YlWFacwhJHd3Re-504" target="kAF0l4YlWFacwhJHd3Re-555">
          <mxGeometry relative="1" as="geometry" />
        </mxCell>
        <mxCell id="kAF0l4YlWFacwhJHd3Re-504" value="Reaction Diffusion" style="rounded=1;whiteSpace=wrap;html=1;" vertex="1" parent="1">
          <mxGeometry x="6325" y="-340" width="120" height="20" as="geometry" />
        </mxCell>
        <mxCell id="kAF0l4YlWFacwhJHd3Re-505" style="edgeStyle=orthogonalEdgeStyle;rounded=0;orthogonalLoop=1;jettySize=auto;html=1;exitX=0.5;exitY=1;exitDx=0;exitDy=0;curved=1;entryX=0.5;entryY=0;entryDx=0;entryDy=0;" edge="1" parent="1" source="kAF0l4YlWFacwhJHd3Re-507" target="kAF0l4YlWFacwhJHd3Re-553">
          <mxGeometry relative="1" as="geometry">
            <mxPoint x="5940" y="-110" as="targetPoint" />
          </mxGeometry>
        </mxCell>
        <mxCell id="kAF0l4YlWFacwhJHd3Re-506" style="edgeStyle=orthogonalEdgeStyle;rounded=0;orthogonalLoop=1;jettySize=auto;html=1;exitX=0.5;exitY=1;exitDx=0;exitDy=0;entryX=0.5;entryY=0;entryDx=0;entryDy=0;curved=1;" edge="1" parent="1" source="kAF0l4YlWFacwhJHd3Re-507" target="kAF0l4YlWFacwhJHd3Re-555">
          <mxGeometry relative="1" as="geometry" />
        </mxCell>
        <mxCell id="kAF0l4YlWFacwhJHd3Re-507" value="Moire" style="rounded=1;whiteSpace=wrap;html=1;" vertex="1" parent="1">
          <mxGeometry x="6455" y="-340" width="120" height="20" as="geometry" />
        </mxCell>
        <mxCell id="kAF0l4YlWFacwhJHd3Re-508" value="&lt;h1&gt;Sources&lt;/h1&gt;" style="text;html=1;align=center;verticalAlign=middle;whiteSpace=wrap;rounded=0;fontSize=16;" vertex="1" parent="1">
          <mxGeometry x="6075" y="-380" width="100" height="30" as="geometry" />
        </mxCell>
        <mxCell id="kAF0l4YlWFacwhJHd3Re-509" value="&lt;h1&gt;&lt;br&gt;&lt;/h1&gt;" style="rounded=1;whiteSpace=wrap;html=1;" vertex="1" parent="1">
          <mxGeometry x="5665" y="120" width="930" height="120" as="geometry" />
        </mxCell>
        <mxCell id="kAF0l4YlWFacwhJHd3Re-510" value="HSV" style="rounded=1;whiteSpace=wrap;html=1;" vertex="1" parent="1">
          <mxGeometry x="5675" y="170" width="120" height="20" as="geometry" />
        </mxCell>
        <mxCell id="kAF0l4YlWFacwhJHd3Re-511" value="Contrast&amp;amp;Brightness" style="rounded=1;whiteSpace=wrap;html=1;" vertex="1" parent="1">
          <mxGeometry x="5805" y="170" width="120" height="20" as="geometry" />
        </mxCell>
        <mxCell id="kAF0l4YlWFacwhJHd3Re-512" value="Sharpness" style="rounded=1;whiteSpace=wrap;html=1;" vertex="1" parent="1">
          <mxGeometry x="5935" y="170" width="120" height="20" as="geometry" />
        </mxCell>
        <mxCell id="kAF0l4YlWFacwhJHd3Re-513" value="Blur" style="rounded=1;whiteSpace=wrap;html=1;" vertex="1" parent="1">
          <mxGeometry x="6065" y="170" width="120" height="20" as="geometry" />
        </mxCell>
        <mxCell id="kAF0l4YlWFacwhJHd3Re-514" value="Sync Emulation" style="rounded=1;whiteSpace=wrap;html=1;" vertex="1" parent="1">
          <mxGeometry x="6195" y="170" width="120" height="20" as="geometry" />
        </mxCell>
        <mxCell id="kAF0l4YlWFacwhJHd3Re-515" value="PTZ" style="rounded=1;whiteSpace=wrap;html=1;" vertex="1" parent="1">
          <mxGeometry x="6325" y="170" width="120" height="20" as="geometry" />
        </mxCell>
        <mxCell id="kAF0l4YlWFacwhJHd3Re-516" value="Reflection" style="rounded=1;whiteSpace=wrap;html=1;" vertex="1" parent="1">
          <mxGeometry x="6455" y="170" width="120" height="20" as="geometry" />
        </mxCell>
        <mxCell id="kAF0l4YlWFacwhJHd3Re-517" value="&lt;h1&gt;Effects&lt;/h1&gt;" style="text;html=1;align=center;verticalAlign=middle;whiteSpace=wrap;rounded=0;fontSize=16;" vertex="1" parent="1">
          <mxGeometry x="6080" y="130" width="100" height="30" as="geometry" />
        </mxCell>
        <mxCell id="kAF0l4YlWFacwhJHd3Re-518" value="Noise" style="rounded=1;whiteSpace=wrap;html=1;" vertex="1" parent="1">
          <mxGeometry x="5675" y="200" width="120" height="20" as="geometry" />
        </mxCell>
        <mxCell id="kAF0l4YlWFacwhJHd3Re-519" value="Glitch" style="rounded=1;whiteSpace=wrap;html=1;" vertex="1" parent="1">
          <mxGeometry x="5805" y="200" width="120" height="20" as="geometry" />
        </mxCell>
        <mxCell id="kAF0l4YlWFacwhJHd3Re-520" value="Warp" style="rounded=1;whiteSpace=wrap;html=1;" vertex="1" parent="1">
          <mxGeometry x="5935" y="200" width="120" height="20" as="geometry" />
        </mxCell>
        <mxCell id="kAF0l4YlWFacwhJHd3Re-521" value="Patterns" style="rounded=1;whiteSpace=wrap;html=1;" vertex="1" parent="1">
          <mxGeometry x="6065" y="200" width="120" height="20" as="geometry" />
        </mxCell>
        <mxCell id="kAF0l4YlWFacwhJHd3Re-522" value="Shapes" style="rounded=1;whiteSpace=wrap;html=1;" vertex="1" parent="1">
          <mxGeometry x="6195" y="200" width="120" height="20" as="geometry" />
        </mxCell>
        <mxCell id="kAF0l4YlWFacwhJHd3Re-523" value="" style="rounded=1;whiteSpace=wrap;html=1;" vertex="1" parent="1">
          <mxGeometry x="6325" y="200" width="120" height="20" as="geometry" />
        </mxCell>
        <mxCell id="kAF0l4YlWFacwhJHd3Re-524" value="" style="rounded=1;whiteSpace=wrap;html=1;" vertex="1" parent="1">
          <mxGeometry x="6455" y="200" width="120" height="20" as="geometry" />
        </mxCell>
        <mxCell id="kAF0l4YlWFacwhJHd3Re-525" style="edgeStyle=orthogonalEdgeStyle;rounded=0;orthogonalLoop=1;jettySize=auto;html=1;exitX=0.5;exitY=1;exitDx=0;exitDy=0;entryX=0.5;entryY=0;entryDx=0;entryDy=0;" edge="1" parent="1" source="kAF0l4YlWFacwhJHd3Re-550" target="kAF0l4YlWFacwhJHd3Re-509">
          <mxGeometry relative="1" as="geometry">
            <mxPoint x="6110" y="100" as="targetPoint" />
          </mxGeometry>
        </mxCell>
        <mxCell id="kAF0l4YlWFacwhJHd3Re-526" value="Mixed, Raw frame" style="edgeLabel;html=1;align=center;verticalAlign=middle;resizable=0;points=[];" vertex="1" connectable="0" parent="kAF0l4YlWFacwhJHd3Re-525">
          <mxGeometry x="-0.1361" y="1" relative="1" as="geometry">
            <mxPoint as="offset" />
          </mxGeometry>
        </mxCell>
        <mxCell id="kAF0l4YlWFacwhJHd3Re-527" style="edgeStyle=orthogonalEdgeStyle;rounded=0;orthogonalLoop=1;jettySize=auto;html=1;exitX=1;exitY=0.812;exitDx=0;exitDy=0;entryX=0;entryY=0.5;entryDx=0;entryDy=0;exitPerimeter=0;" edge="1" parent="1" source="kAF0l4YlWFacwhJHd3Re-535" target="kAF0l4YlWFacwhJHd3Re-509">
          <mxGeometry relative="1" as="geometry" />
        </mxCell>
        <mxCell id="kAF0l4YlWFacwhJHd3Re-528" value="Param&lt;div&gt;Ctrl&lt;/div&gt;" style="edgeLabel;html=1;align=center;verticalAlign=middle;resizable=0;points=[];" vertex="1" connectable="0" parent="kAF0l4YlWFacwhJHd3Re-527">
          <mxGeometry x="-0.1304" relative="1" as="geometry">
            <mxPoint y="6" as="offset" />
          </mxGeometry>
        </mxCell>
        <mxCell id="kAF0l4YlWFacwhJHd3Re-529" style="edgeStyle=orthogonalEdgeStyle;rounded=0;orthogonalLoop=1;jettySize=auto;html=1;exitX=1;exitY=0.25;exitDx=0;exitDy=0;entryX=0;entryY=0.5;entryDx=0;entryDy=0;" edge="1" parent="1" source="kAF0l4YlWFacwhJHd3Re-535" target="kAF0l4YlWFacwhJHd3Re-550">
          <mxGeometry relative="1" as="geometry">
            <Array as="points">
              <mxPoint x="5560" y="-170" />
              <mxPoint x="5910" y="-170" />
              <mxPoint x="5910" y="-50" />
            </Array>
          </mxGeometry>
        </mxCell>
        <mxCell id="kAF0l4YlWFacwhJHd3Re-530" value="Param Control" style="edgeLabel;html=1;align=center;verticalAlign=middle;resizable=0;points=[];" vertex="1" connectable="0" parent="kAF0l4YlWFacwhJHd3Re-529">
          <mxGeometry x="-0.1671" y="2" relative="1" as="geometry">
            <mxPoint as="offset" />
          </mxGeometry>
        </mxCell>
        <mxCell id="kAF0l4YlWFacwhJHd3Re-531" style="edgeStyle=orthogonalEdgeStyle;rounded=0;orthogonalLoop=1;jettySize=auto;html=1;exitX=1;exitY=0.5;exitDx=0;exitDy=0;" edge="1" parent="1" source="kAF0l4YlWFacwhJHd3Re-535" target="kAF0l4YlWFacwhJHd3Re-542">
          <mxGeometry relative="1" as="geometry">
            <Array as="points">
              <mxPoint x="5620" y="-40" />
            </Array>
          </mxGeometry>
        </mxCell>
        <mxCell id="kAF0l4YlWFacwhJHd3Re-532" value="Param&lt;div&gt;Ctrl&lt;/div&gt;" style="edgeLabel;html=1;align=center;verticalAlign=middle;resizable=0;points=[];" vertex="1" connectable="0" parent="kAF0l4YlWFacwhJHd3Re-531">
          <mxGeometry x="0.0943" relative="1" as="geometry">
            <mxPoint x="11" as="offset" />
          </mxGeometry>
        </mxCell>
        <mxCell id="kAF0l4YlWFacwhJHd3Re-533" style="edgeStyle=orthogonalEdgeStyle;rounded=0;orthogonalLoop=1;jettySize=auto;html=1;exitX=0.5;exitY=1;exitDx=0;exitDy=0;entryX=0;entryY=0.5;entryDx=0;entryDy=0;" edge="1" parent="1" source="kAF0l4YlWFacwhJHd3Re-535" target="kAF0l4YlWFacwhJHd3Re-561">
          <mxGeometry relative="1" as="geometry">
            <mxPoint x="5982.5" y="469.06500000000005" as="targetPoint" />
          </mxGeometry>
        </mxCell>
        <mxCell id="kAF0l4YlWFacwhJHd3Re-534" value="Parameter control" style="edgeLabel;html=1;align=center;verticalAlign=middle;resizable=0;points=[];" vertex="1" connectable="0" parent="kAF0l4YlWFacwhJHd3Re-533">
          <mxGeometry x="0.4336" y="-1" relative="1" as="geometry">
            <mxPoint as="offset" />
          </mxGeometry>
        </mxCell>
        <mxCell id="kAF0l4YlWFacwhJHd3Re-535" value="" style="rounded=1;whiteSpace=wrap;html=1;" vertex="1" parent="1">
          <mxGeometry x="5410" y="-390" width="210" height="640" as="geometry" />
        </mxCell>
        <mxCell id="kAF0l4YlWFacwhJHd3Re-536" value="&lt;h1&gt;MIDI Controller&lt;/h1&gt;" style="text;html=1;align=center;verticalAlign=middle;whiteSpace=wrap;rounded=0;fontSize=16;" vertex="1" parent="1">
          <mxGeometry x="5465" y="-360" width="100" height="30" as="geometry" />
        </mxCell>
        <mxCell id="kAF0l4YlWFacwhJHd3Re-537" value="" style="rounded=1;whiteSpace=wrap;html=1;" vertex="1" parent="1">
          <mxGeometry x="5430" y="-250" width="170" height="220" as="geometry" />
        </mxCell>
        <mxCell id="kAF0l4YlWFacwhJHd3Re-538" value="" style="rounded=1;whiteSpace=wrap;html=1;" vertex="1" parent="1">
          <mxGeometry x="5430" width="170" height="220" as="geometry" />
        </mxCell>
        <mxCell id="kAF0l4YlWFacwhJHd3Re-539" style="edgeStyle=orthogonalEdgeStyle;rounded=0;orthogonalLoop=1;jettySize=auto;html=1;exitX=0.5;exitY=1;exitDx=0;exitDy=0;entryX=0.114;entryY=0.023;entryDx=0;entryDy=0;entryPerimeter=0;" edge="1" parent="1" source="kAF0l4YlWFacwhJHd3Re-542" target="kAF0l4YlWFacwhJHd3Re-509">
          <mxGeometry relative="1" as="geometry" />
        </mxCell>
        <mxCell id="kAF0l4YlWFacwhJHd3Re-540" value="Automated Param Control" style="edgeLabel;html=1;align=center;verticalAlign=middle;resizable=0;points=[];" vertex="1" connectable="0" parent="kAF0l4YlWFacwhJHd3Re-539">
          <mxGeometry x="0.1917" y="4" relative="1" as="geometry">
            <mxPoint y="-10" as="offset" />
          </mxGeometry>
        </mxCell>
        <mxCell id="kAF0l4YlWFacwhJHd3Re-541" value="" style="group" vertex="1" connectable="0" parent="1">
          <mxGeometry x="5680" y="-150" width="190" height="220" as="geometry" />
        </mxCell>
        <mxCell id="kAF0l4YlWFacwhJHd3Re-542" value="" style="rounded=1;whiteSpace=wrap;html=1;" vertex="1" parent="kAF0l4YlWFacwhJHd3Re-541">
          <mxGeometry width="190" height="220" as="geometry" />
        </mxCell>
        <mxCell id="kAF0l4YlWFacwhJHd3Re-543" value="Sine" style="rounded=1;whiteSpace=wrap;html=1;" vertex="1" parent="kAF0l4YlWFacwhJHd3Re-541">
          <mxGeometry x="32.5" y="50" width="120" height="20" as="geometry" />
        </mxCell>
        <mxCell id="kAF0l4YlWFacwhJHd3Re-544" value="Square" style="rounded=1;whiteSpace=wrap;html=1;" vertex="1" parent="kAF0l4YlWFacwhJHd3Re-541">
          <mxGeometry x="32.5" y="80" width="120" height="20" as="geometry" />
        </mxCell>
        <mxCell id="kAF0l4YlWFacwhJHd3Re-545" value="Triangle" style="rounded=1;whiteSpace=wrap;html=1;" vertex="1" parent="kAF0l4YlWFacwhJHd3Re-541">
          <mxGeometry x="32.5" y="110" width="120" height="20" as="geometry" />
        </mxCell>
        <mxCell id="kAF0l4YlWFacwhJHd3Re-546" value="Sawtooth" style="rounded=1;whiteSpace=wrap;html=1;" vertex="1" parent="kAF0l4YlWFacwhJHd3Re-541">
          <mxGeometry x="32.5" y="140" width="120" height="20" as="geometry" />
        </mxCell>
        <mxCell id="kAF0l4YlWFacwhJHd3Re-547" value="Perlin Noise" style="rounded=1;whiteSpace=wrap;html=1;" vertex="1" parent="kAF0l4YlWFacwhJHd3Re-541">
          <mxGeometry x="32.5" y="170" width="120" height="20" as="geometry" />
        </mxCell>
        <mxCell id="kAF0l4YlWFacwhJHd3Re-548" value="&lt;h1&gt;Oscillators&lt;/h1&gt;" style="text;html=1;align=center;verticalAlign=middle;whiteSpace=wrap;rounded=0;fontSize=16;" vertex="1" parent="kAF0l4YlWFacwhJHd3Re-541">
          <mxGeometry x="45" y="10" width="100" height="30" as="geometry" />
        </mxCell>
        <mxCell id="kAF0l4YlWFacwhJHd3Re-549" value="" style="group;fillColor=default;" vertex="1" connectable="0" parent="1">
          <mxGeometry x="5960" y="-150" width="540" height="200" as="geometry" />
        </mxCell>
        <mxCell id="kAF0l4YlWFacwhJHd3Re-550" value="" style="rounded=1;whiteSpace=wrap;html=1;fillColor=none;" vertex="1" parent="kAF0l4YlWFacwhJHd3Re-549">
          <mxGeometry width="540" height="200" as="geometry" />
        </mxCell>
        <mxCell id="kAF0l4YlWFacwhJHd3Re-551" value="&lt;span style=&quot;color: rgba(0, 0, 0, 0); font-family: monospace; font-size: 0px; text-align: start; text-wrap-mode: nowrap;&quot;&gt;Sl&lt;/span&gt;" style="rounded=1;whiteSpace=wrap;html=1;fillColor=none;" vertex="1" parent="kAF0l4YlWFacwhJHd3Re-549">
          <mxGeometry x="190" y="50" width="160" height="130" as="geometry" />
        </mxCell>
        <mxCell id="kAF0l4YlWFacwhJHd3Re-552" style="edgeStyle=orthogonalEdgeStyle;rounded=0;orthogonalLoop=1;jettySize=auto;html=1;exitX=1;exitY=0.5;exitDx=0;exitDy=0;entryX=0;entryY=0.5;entryDx=0;entryDy=0;" edge="1" parent="kAF0l4YlWFacwhJHd3Re-549" source="kAF0l4YlWFacwhJHd3Re-553" target="kAF0l4YlWFacwhJHd3Re-551">
          <mxGeometry relative="1" as="geometry" />
        </mxCell>
        <mxCell id="kAF0l4YlWFacwhJHd3Re-553" value="&lt;h2&gt;Source A&lt;/h2&gt;" style="rounded=1;whiteSpace=wrap;html=1;" vertex="1" parent="kAF0l4YlWFacwhJHd3Re-549">
          <mxGeometry x="20" y="50" width="120" height="130" as="geometry" />
        </mxCell>
        <mxCell id="kAF0l4YlWFacwhJHd3Re-554" style="edgeStyle=orthogonalEdgeStyle;rounded=0;orthogonalLoop=1;jettySize=auto;html=1;exitX=0;exitY=0.5;exitDx=0;exitDy=0;entryX=1;entryY=0.5;entryDx=0;entryDy=0;" edge="1" parent="kAF0l4YlWFacwhJHd3Re-549" source="kAF0l4YlWFacwhJHd3Re-555" target="kAF0l4YlWFacwhJHd3Re-551">
          <mxGeometry relative="1" as="geometry" />
        </mxCell>
        <mxCell id="kAF0l4YlWFacwhJHd3Re-555" value="&lt;h2&gt;Source B&lt;/h2&gt;" style="rounded=1;whiteSpace=wrap;html=1;" vertex="1" parent="kAF0l4YlWFacwhJHd3Re-549">
          <mxGeometry x="400" y="50" width="120" height="130" as="geometry" />
        </mxCell>
        <mxCell id="kAF0l4YlWFacwhJHd3Re-556" value="Alpha" style="rounded=1;whiteSpace=wrap;html=1;" vertex="1" parent="kAF0l4YlWFacwhJHd3Re-549">
          <mxGeometry x="210" y="90" width="120" height="20" as="geometry" />
        </mxCell>
        <mxCell id="kAF0l4YlWFacwhJHd3Re-557" value="Chroma Keying" style="rounded=1;whiteSpace=wrap;html=1;" vertex="1" parent="kAF0l4YlWFacwhJHd3Re-549">
          <mxGeometry x="210" y="120" width="120" height="20" as="geometry" />
        </mxCell>
        <mxCell id="kAF0l4YlWFacwhJHd3Re-558" value="Luma Keying" style="rounded=1;whiteSpace=wrap;html=1;" vertex="1" parent="kAF0l4YlWFacwhJHd3Re-549">
          <mxGeometry x="210" y="150" width="120" height="20" as="geometry" />
        </mxCell>
        <mxCell id="kAF0l4YlWFacwhJHd3Re-559" value="&lt;h3&gt;Blend Modes&lt;/h3&gt;" style="text;html=1;align=center;verticalAlign=middle;whiteSpace=wrap;rounded=0;fontSize=16;" vertex="1" parent="kAF0l4YlWFacwhJHd3Re-549">
          <mxGeometry x="210" y="50" width="120" height="30" as="geometry" />
        </mxCell>
        <mxCell id="kAF0l4YlWFacwhJHd3Re-560" value="&lt;h1&gt;Mixer&lt;/h1&gt;" style="text;html=1;align=center;verticalAlign=middle;whiteSpace=wrap;rounded=0;fontSize=16;" vertex="1" parent="kAF0l4YlWFacwhJHd3Re-549">
          <mxGeometry x="220" y="10" width="100" height="30" as="geometry" />
        </mxCell>
        <mxCell id="kAF0l4YlWFacwhJHd3Re-652" style="edgeStyle=orthogonalEdgeStyle;rounded=0;orthogonalLoop=1;jettySize=auto;html=1;exitX=1;exitY=0.5;exitDx=0;exitDy=0;entryX=0.5;entryY=0;entryDx=0;entryDy=0;" edge="1" parent="1" source="kAF0l4YlWFacwhJHd3Re-561" target="kAF0l4YlWFacwhJHd3Re-647">
          <mxGeometry relative="1" as="geometry" />
        </mxCell>
        <mxCell id="kAF0l4YlWFacwhJHd3Re-561" value="" style="rounded=1;whiteSpace=wrap;html=1;fillColor=default;" vertex="1" parent="1">
          <mxGeometry x="5730" y="340" width="820" height="230" as="geometry" />
        </mxCell>
        <mxCell id="kAF0l4YlWFacwhJHd3Re-562" style="edgeStyle=orthogonalEdgeStyle;rounded=0;orthogonalLoop=1;jettySize=auto;html=1;exitX=1;exitY=0.5;exitDx=0;exitDy=0;entryX=0;entryY=0.5;entryDx=0;entryDy=0;" edge="1" parent="1" source="kAF0l4YlWFacwhJHd3Re-563" target="kAF0l4YlWFacwhJHd3Re-565">
          <mxGeometry relative="1" as="geometry" />
        </mxCell>
        <mxCell id="kAF0l4YlWFacwhJHd3Re-563" value="&lt;h2&gt;&lt;span style=&quot;background-color: transparent; color: light-dark(rgb(0, 0, 0), rgb(255, 255, 255)); font-size: 12px; font-weight: normal;&quot;&gt;&lt;br&gt;&lt;/span&gt;&lt;/h2&gt;&lt;h2&gt;&lt;span style=&quot;background-color: transparent; color: light-dark(rgb(0, 0, 0), rgb(255, 255, 255)); font-size: 12px; font-weight: normal;&quot;&gt;Mixes modified frame with raw frame&lt;/span&gt;&lt;/h2&gt;" style="rounded=1;whiteSpace=wrap;html=1;" vertex="1" parent="1">
          <mxGeometry x="5760" y="406.26" width="210" height="120" as="geometry" />
        </mxCell>
        <mxCell id="kAF0l4YlWFacwhJHd3Re-564" style="edgeStyle=orthogonalEdgeStyle;rounded=0;orthogonalLoop=1;jettySize=auto;html=1;exitX=1;exitY=0.5;exitDx=0;exitDy=0;entryX=0;entryY=0.5;entryDx=0;entryDy=0;" edge="1" parent="1" source="kAF0l4YlWFacwhJHd3Re-565" target="kAF0l4YlWFacwhJHd3Re-569">
          <mxGeometry relative="1" as="geometry" />
        </mxCell>
        <mxCell id="kAF0l4YlWFacwhJHd3Re-565" value="&lt;h2&gt;&lt;br&gt;&lt;/h2&gt;&lt;div&gt;Mixes current alpha-blended frame with previous alpha-blended frame&lt;/div&gt;" style="rounded=1;whiteSpace=wrap;html=1;" vertex="1" parent="1">
          <mxGeometry x="6030" y="406.26" width="210" height="120" as="geometry" />
        </mxCell>
        <mxCell id="kAF0l4YlWFacwhJHd3Re-566" value="&lt;h3&gt;Alpha Blend&lt;/h3&gt;" style="text;html=1;align=center;verticalAlign=middle;whiteSpace=wrap;rounded=0;fontSize=16;" vertex="1" parent="1">
          <mxGeometry x="5805" y="426.26" width="120" height="30" as="geometry" />
        </mxCell>
        <mxCell id="kAF0l4YlWFacwhJHd3Re-567" value="&lt;h3&gt;Temporal Filter&lt;/h3&gt;" style="text;html=1;align=center;verticalAlign=middle;whiteSpace=wrap;rounded=0;fontSize=16;" vertex="1" parent="1">
          <mxGeometry x="6060" y="420" width="150" height="30" as="geometry" />
        </mxCell>
        <mxCell id="kAF0l4YlWFacwhJHd3Re-568" style="edgeStyle=orthogonalEdgeStyle;rounded=0;orthogonalLoop=1;jettySize=auto;html=1;exitX=0.999;exitY=0.551;exitDx=0;exitDy=0;entryX=0.5;entryY=0;entryDx=0;entryDy=0;exitPerimeter=0;" edge="1" parent="1" source="kAF0l4YlWFacwhJHd3Re-561" target="kAF0l4YlWFacwhJHd3Re-576">
          <mxGeometry relative="1" as="geometry">
            <Array as="points">
              <mxPoint x="6549" y="440" />
              <mxPoint x="6600" y="440" />
              <mxPoint x="6600" y="650" />
              <mxPoint x="5775" y="650" />
            </Array>
          </mxGeometry>
        </mxCell>
        <mxCell id="kAF0l4YlWFacwhJHd3Re-569" value="&lt;div&gt;&lt;br&gt;&lt;/div&gt;&lt;div&gt;&lt;br&gt;&lt;/div&gt;&lt;div&gt;&lt;br&gt;&lt;/div&gt;Stores temporally-filtered frame into variable length frame buffer and averages them" style="rounded=1;whiteSpace=wrap;html=1;" vertex="1" parent="1">
          <mxGeometry x="6300" y="406.26" width="210" height="120" as="geometry" />
        </mxCell>
        <mxCell id="kAF0l4YlWFacwhJHd3Re-570" value="&lt;h3&gt;Frame Buffer&lt;/h3&gt;" style="text;html=1;align=center;verticalAlign=middle;whiteSpace=wrap;rounded=0;fontSize=16;" vertex="1" parent="1">
          <mxGeometry x="6335" y="412.52" width="150" height="30" as="geometry" />
        </mxCell>
        <mxCell id="kAF0l4YlWFacwhJHd3Re-571" value="&lt;h1&gt;Feedback&lt;/h1&gt;" style="text;html=1;align=center;verticalAlign=middle;whiteSpace=wrap;rounded=0;fontSize=16;" vertex="1" parent="1">
          <mxGeometry x="6085" y="350" width="100" height="30" as="geometry" />
        </mxCell>
        <mxCell id="kAF0l4YlWFacwhJHd3Re-572" value="Mixed,Raw frame" style="edgeStyle=orthogonalEdgeStyle;rounded=0;orthogonalLoop=1;jettySize=auto;html=1;exitX=1;exitY=0.5;exitDx=0;exitDy=0;entryX=0.5;entryY=0;entryDx=0;entryDy=0;" edge="1" parent="1" source="kAF0l4YlWFacwhJHd3Re-550" target="kAF0l4YlWFacwhJHd3Re-563">
          <mxGeometry x="-0.9099" relative="1" as="geometry">
            <Array as="points">
              <mxPoint x="6620" y="-50" />
              <mxPoint x="6620" y="310" />
              <mxPoint x="5865" y="310" />
            </Array>
            <mxPoint as="offset" />
          </mxGeometry>
        </mxCell>
        <mxCell id="kAF0l4YlWFacwhJHd3Re-573" value="Raw Frame" style="edgeLabel;html=1;align=center;verticalAlign=middle;resizable=0;points=[];" vertex="1" connectable="0" parent="kAF0l4YlWFacwhJHd3Re-572">
          <mxGeometry x="0.8135" y="-1" relative="1" as="geometry">
            <mxPoint x="27" as="offset" />
          </mxGeometry>
        </mxCell>
        <mxCell id="kAF0l4YlWFacwhJHd3Re-575" style="edgeStyle=orthogonalEdgeStyle;rounded=0;orthogonalLoop=1;jettySize=auto;html=1;exitX=1;exitY=0.5;exitDx=0;exitDy=0;entryX=0;entryY=0.5;entryDx=0;entryDy=0;" edge="1" parent="1" source="kAF0l4YlWFacwhJHd3Re-576" target="kAF0l4YlWFacwhJHd3Re-578">
          <mxGeometry relative="1" as="geometry" />
        </mxCell>
        <mxCell id="kAF0l4YlWFacwhJHd3Re-576" value="HDMI Output B" style="rounded=1;whiteSpace=wrap;html=1;" vertex="1" parent="1">
          <mxGeometry x="5715" y="717.48" width="120" height="60" as="geometry" />
        </mxCell>
        <mxCell id="kAF0l4YlWFacwhJHd3Re-619" style="edgeStyle=orthogonalEdgeStyle;rounded=0;orthogonalLoop=1;jettySize=auto;html=1;exitX=1;exitY=0.5;exitDx=0;exitDy=0;entryX=0;entryY=0.5;entryDx=0;entryDy=0;" edge="1" parent="1" source="kAF0l4YlWFacwhJHd3Re-645" target="kAF0l4YlWFacwhJHd3Re-483">
          <mxGeometry relative="1" as="geometry" />
        </mxCell>
        <mxCell id="kAF0l4YlWFacwhJHd3Re-578" value="HDMI -&amp;gt; VGA Converter" style="rounded=1;whiteSpace=wrap;html=1;" vertex="1" parent="1">
          <mxGeometry x="5893.5" y="717.48" width="120" height="60" as="geometry" />
        </mxCell>
        <mxCell id="kAF0l4YlWFacwhJHd3Re-579" style="edgeStyle=orthogonalEdgeStyle;rounded=0;orthogonalLoop=1;jettySize=auto;html=1;exitX=1;exitY=0.5;exitDx=0;exitDy=0;entryX=0.75;entryY=0;entryDx=0;entryDy=0;" edge="1" parent="1" source="kAF0l4YlWFacwhJHd3Re-580" target="kAF0l4YlWFacwhJHd3Re-492">
          <mxGeometry relative="1" as="geometry">
            <Array as="points">
              <mxPoint x="6680" y="747" />
              <mxPoint x="6680" y="-420" />
              <mxPoint x="6025" y="-420" />
            </Array>
          </mxGeometry>
        </mxCell>
        <mxCell id="kAF0l4YlWFacwhJHd3Re-580" value="&lt;h3&gt;VC9900 Synth&amp;nbsp;&lt;br&gt;(VGA to HDMI)&lt;/h3&gt;" style="rounded=1;whiteSpace=wrap;html=1;" vertex="1" parent="1">
          <mxGeometry x="6495" y="717.48" width="120" height="60" as="geometry" />
        </mxCell>
        <mxCell id="kAF0l4YlWFacwhJHd3Re-581" style="edgeStyle=orthogonalEdgeStyle;rounded=0;orthogonalLoop=1;jettySize=auto;html=1;exitX=0.5;exitY=1;exitDx=0;exitDy=0;entryX=0.25;entryY=0;entryDx=0;entryDy=0;" edge="1" parent="1" source="kAF0l4YlWFacwhJHd3Re-509" target="kAF0l4YlWFacwhJHd3Re-563">
          <mxGeometry relative="1" as="geometry">
            <mxPoint x="6127.5" y="406.2600000000002" as="targetPoint" />
            <Array as="points">
              <mxPoint x="6130" y="280" />
              <mxPoint x="5813" y="280" />
            </Array>
          </mxGeometry>
        </mxCell>
        <mxCell id="kAF0l4YlWFacwhJHd3Re-582" value="Modified frame" style="edgeLabel;html=1;align=center;verticalAlign=middle;resizable=0;points=[];" vertex="1" connectable="0" parent="kAF0l4YlWFacwhJHd3Re-581">
          <mxGeometry x="0.1606" y="3" relative="1" as="geometry">
            <mxPoint x="35" y="-3" as="offset" />
          </mxGeometry>
        </mxCell>
        <mxCell id="kAF0l4YlWFacwhJHd3Re-583" style="edgeStyle=orthogonalEdgeStyle;rounded=0;orthogonalLoop=1;jettySize=auto;html=1;exitX=1;exitY=0.5;exitDx=0;exitDy=0;entryX=0;entryY=0.5;entryDx=0;entryDy=0;" edge="1" parent="1" target="kAF0l4YlWFacwhJHd3Re-580">
          <mxGeometry relative="1" as="geometry">
            <mxPoint x="6440" y="747.48" as="sourcePoint" />
          </mxGeometry>
        </mxCell>
        <mxCell id="kAF0l4YlWFacwhJHd3Re-585" value="Internal feedback switch" style="ellipse;whiteSpace=wrap;html=1;aspect=fixed;" vertex="1" parent="1">
          <mxGeometry x="6330" y="711.22" width="40" height="40" as="geometry" />
        </mxCell>
        <mxCell id="kAF0l4YlWFacwhJHd3Re-599" style="edgeStyle=orthogonalEdgeStyle;rounded=0;orthogonalLoop=1;jettySize=auto;html=1;exitX=0;exitY=0.5;exitDx=0;exitDy=0;entryX=1;entryY=0.5;entryDx=0;entryDy=0;" edge="1" parent="1" source="kAF0l4YlWFacwhJHd3Re-600">
          <mxGeometry relative="1" as="geometry">
            <Array as="points">
              <mxPoint x="6090" y="937.48" />
              <mxPoint x="6090" y="877.48" />
            </Array>
            <mxPoint x="6040" y="877.4799999999996" as="targetPoint" />
          </mxGeometry>
        </mxCell>
        <mxCell id="kAF0l4YlWFacwhJHd3Re-603" style="edgeStyle=orthogonalEdgeStyle;rounded=0;orthogonalLoop=1;jettySize=auto;html=1;exitX=1;exitY=0;exitDx=0;exitDy=0;entryX=0;entryY=0.5;entryDx=0;entryDy=0;" edge="1" parent="1" target="kAF0l4YlWFacwhJHd3Re-594">
          <mxGeometry relative="1" as="geometry">
            <mxPoint x="6037.071067811863" y="780.4089321881356" as="sourcePoint" />
          </mxGeometry>
        </mxCell>
        <mxCell id="kAF0l4YlWFacwhJHd3Re-621" value="" style="rounded=0;whiteSpace=wrap;html=1;fillColor=#6a00ff;strokeColor=#3700CC;fillStyle=cross-hatch;fontColor=#ffffff;" vertex="1" parent="1">
          <mxGeometry x="5400" y="-810" width="740" height="320" as="geometry" />
        </mxCell>
        <mxCell id="kAF0l4YlWFacwhJHd3Re-622" style="edgeStyle=orthogonalEdgeStyle;rounded=0;orthogonalLoop=1;jettySize=auto;html=1;exitX=0.5;exitY=1;exitDx=0;exitDy=0;entryX=0.5;entryY=0;entryDx=0;entryDy=0;" edge="1" parent="1" target="kAF0l4YlWFacwhJHd3Re-630">
          <mxGeometry relative="1" as="geometry">
            <mxPoint x="5730.000000000001" y="-680" as="sourcePoint" />
          </mxGeometry>
        </mxCell>
        <mxCell id="kAF0l4YlWFacwhJHd3Re-623" value="" style="rounded=1;whiteSpace=wrap;html=1;" vertex="1" parent="1">
          <mxGeometry x="5585" y="-800" width="290" height="120" as="geometry" />
        </mxCell>
        <mxCell id="kAF0l4YlWFacwhJHd3Re-624" value="&lt;h3&gt;Composite Source A&lt;/h3&gt;" style="rounded=1;whiteSpace=wrap;html=1;" vertex="1" parent="1">
          <mxGeometry x="5605" y="-760" width="120" height="60" as="geometry" />
        </mxCell>
        <mxCell id="kAF0l4YlWFacwhJHd3Re-625" value="&lt;h3&gt;Composite Source A&lt;/h3&gt;" style="rounded=1;whiteSpace=wrap;html=1;" vertex="1" parent="1">
          <mxGeometry x="5735" y="-760" width="120" height="60" as="geometry" />
        </mxCell>
        <mxCell id="kAF0l4YlWFacwhJHd3Re-626" style="edgeStyle=orthogonalEdgeStyle;rounded=0;orthogonalLoop=1;jettySize=auto;html=1;exitX=1;exitY=0.5;exitDx=0;exitDy=0;entryX=0;entryY=0.5;entryDx=0;entryDy=0;" edge="1" parent="1" source="kAF0l4YlWFacwhJHd3Re-627" target="kAF0l4YlWFacwhJHd3Re-624">
          <mxGeometry relative="1" as="geometry" />
        </mxCell>
        <mxCell id="kAF0l4YlWFacwhJHd3Re-627" value="&lt;h3&gt;RecurBOY&lt;/h3&gt;" style="rounded=1;whiteSpace=wrap;html=1;" vertex="1" parent="1">
          <mxGeometry x="5410" y="-760" width="120" height="60" as="geometry" />
        </mxCell>
        <mxCell id="kAF0l4YlWFacwhJHd3Re-628" value="&lt;h2&gt;Klompf Dirty Composite Mixer&lt;/h2&gt;" style="text;html=1;align=center;verticalAlign=middle;whiteSpace=wrap;rounded=0;" vertex="1" parent="1">
          <mxGeometry x="5585" y="-800" width="270" height="30" as="geometry" />
        </mxCell>
        <mxCell id="kAF0l4YlWFacwhJHd3Re-629" style="edgeStyle=orthogonalEdgeStyle;rounded=0;orthogonalLoop=1;jettySize=auto;html=1;exitX=0.5;exitY=1;exitDx=0;exitDy=0;entryX=0.5;entryY=0;entryDx=0;entryDy=0;" edge="1" parent="1" source="kAF0l4YlWFacwhJHd3Re-630" target="kAF0l4YlWFacwhJHd3Re-632">
          <mxGeometry relative="1" as="geometry" />
        </mxCell>
        <mxCell id="kAF0l4YlWFacwhJHd3Re-630" value="&lt;h3&gt;_RUPTURE_&lt;/h3&gt;" style="rounded=1;whiteSpace=wrap;html=1;" vertex="1" parent="1">
          <mxGeometry x="5675" y="-650" width="120" height="60" as="geometry" />
        </mxCell>
        <mxCell id="kAF0l4YlWFacwhJHd3Re-638" style="edgeStyle=orthogonalEdgeStyle;rounded=0;orthogonalLoop=1;jettySize=auto;html=1;exitX=1;exitY=0.5;exitDx=0;exitDy=0;entryX=0;entryY=0.5;entryDx=0;entryDy=0;" edge="1" parent="1" source="kAF0l4YlWFacwhJHd3Re-632" target="kAF0l4YlWFacwhJHd3Re-637">
          <mxGeometry relative="1" as="geometry" />
        </mxCell>
        <mxCell id="kAF0l4YlWFacwhJHd3Re-632" value="&lt;h3&gt;Archer Enhancer&lt;/h3&gt;" style="rounded=1;whiteSpace=wrap;html=1;" vertex="1" parent="1">
          <mxGeometry x="5675" y="-570" width="120" height="60" as="geometry" />
        </mxCell>
        <mxCell id="kAF0l4YlWFacwhJHd3Re-633" value="&lt;h3&gt;Syncope&lt;/h3&gt;" style="rounded=1;whiteSpace=wrap;html=1;" vertex="1" parent="1">
          <mxGeometry x="5952" y="-640" width="120" height="110" as="geometry" />
        </mxCell>
        <mxCell id="kAF0l4YlWFacwhJHd3Re-634" value="IN" style="ellipse;whiteSpace=wrap;html=1;aspect=fixed;" vertex="1" parent="1">
          <mxGeometry x="6062" y="-640" width="20" height="20" as="geometry" />
        </mxCell>
        <mxCell id="kAF0l4YlWFacwhJHd3Re-642" style="edgeStyle=orthogonalEdgeStyle;rounded=0;orthogonalLoop=1;jettySize=auto;html=1;exitX=0.5;exitY=1;exitDx=0;exitDy=0;entryX=0.5;entryY=0;entryDx=0;entryDy=0;" edge="1" parent="1" source="kAF0l4YlWFacwhJHd3Re-635" target="kAF0l4YlWFacwhJHd3Re-495">
          <mxGeometry relative="1" as="geometry">
            <Array as="points">
              <mxPoint x="6072" y="-460" />
              <mxPoint x="5865" y="-460" />
            </Array>
          </mxGeometry>
        </mxCell>
        <mxCell id="kAF0l4YlWFacwhJHd3Re-635" value="Out" style="ellipse;whiteSpace=wrap;html=1;aspect=fixed;" vertex="1" parent="1">
          <mxGeometry x="6062" y="-550" width="20" height="20" as="geometry" />
        </mxCell>
        <mxCell id="kAF0l4YlWFacwhJHd3Re-639" style="edgeStyle=orthogonalEdgeStyle;rounded=0;orthogonalLoop=1;jettySize=auto;html=1;exitX=0.5;exitY=0;exitDx=0;exitDy=0;entryX=1;entryY=0.5;entryDx=0;entryDy=0;" edge="1" parent="1" source="kAF0l4YlWFacwhJHd3Re-636" target="kAF0l4YlWFacwhJHd3Re-625">
          <mxGeometry relative="1" as="geometry" />
        </mxCell>
        <mxCell id="kAF0l4YlWFacwhJHd3Re-636" value="Send" style="ellipse;whiteSpace=wrap;html=1;aspect=fixed;" vertex="1" parent="1">
          <mxGeometry x="5942" y="-640" width="20" height="20" as="geometry" />
        </mxCell>
        <mxCell id="kAF0l4YlWFacwhJHd3Re-637" value="Return" style="ellipse;whiteSpace=wrap;html=1;aspect=fixed;" vertex="1" parent="1">
          <mxGeometry x="5942" y="-550" width="20" height="20" as="geometry" />
        </mxCell>
        <mxCell id="kAF0l4YlWFacwhJHd3Re-641" style="edgeStyle=orthogonalEdgeStyle;rounded=0;orthogonalLoop=1;jettySize=auto;html=1;exitX=0.5;exitY=1;exitDx=0;exitDy=0;entryX=0.5;entryY=0;entryDx=0;entryDy=0;" edge="1" parent="1" source="kAF0l4YlWFacwhJHd3Re-640" target="kAF0l4YlWFacwhJHd3Re-634">
          <mxGeometry relative="1" as="geometry" />
        </mxCell>
        <mxCell id="kAF0l4YlWFacwhJHd3Re-640" value="&lt;h3&gt;CCTV Camera&lt;/h3&gt;" style="rounded=1;whiteSpace=wrap;html=1;" vertex="1" parent="1">
          <mxGeometry x="6012" y="-770" width="120" height="60" as="geometry" />
        </mxCell>
        <mxCell id="kAF0l4YlWFacwhJHd3Re-643" value="&lt;h3&gt;HDMI Display&lt;/h3&gt;" style="rounded=1;whiteSpace=wrap;html=1;" vertex="1" parent="1">
          <mxGeometry x="6380" y="-810" width="290" height="190" as="geometry" />
        </mxCell>
        <mxCell id="kAF0l4YlWFacwhJHd3Re-646" value="" style="edgeStyle=orthogonalEdgeStyle;rounded=0;orthogonalLoop=1;jettySize=auto;html=1;exitX=1;exitY=0.5;exitDx=0;exitDy=0;entryX=0;entryY=0.5;entryDx=0;entryDy=0;" edge="1" parent="1" source="kAF0l4YlWFacwhJHd3Re-578" target="kAF0l4YlWFacwhJHd3Re-645">
          <mxGeometry relative="1" as="geometry">
            <mxPoint x="6014" y="747" as="sourcePoint" />
            <mxPoint x="6260" y="747" as="targetPoint" />
          </mxGeometry>
        </mxCell>
        <mxCell id="kAF0l4YlWFacwhJHd3Re-645" value="&lt;h3&gt;PixelSlasher&lt;/h3&gt;" style="rounded=1;whiteSpace=wrap;html=1;" vertex="1" parent="1">
          <mxGeometry x="6080" y="717.48" width="120" height="60" as="geometry" />
        </mxCell>
        <mxCell id="kAF0l4YlWFacwhJHd3Re-649" style="edgeStyle=orthogonalEdgeStyle;rounded=0;orthogonalLoop=1;jettySize=auto;html=1;exitX=0.5;exitY=1;exitDx=0;exitDy=0;entryX=0.5;entryY=0;entryDx=0;entryDy=0;" edge="1" parent="1" source="kAF0l4YlWFacwhJHd3Re-647" target="kAF0l4YlWFacwhJHd3Re-648">
          <mxGeometry relative="1" as="geometry" />
        </mxCell>
        <mxCell id="kAF0l4YlWFacwhJHd3Re-647" value="HDMI Output A" style="rounded=1;whiteSpace=wrap;html=1;" vertex="1" parent="1">
          <mxGeometry x="5485" y="720" width="120" height="60" as="geometry" />
        </mxCell>
        <mxCell id="kAF0l4YlWFacwhJHd3Re-648" value="HDMI -&amp;gt; VGA Converter" style="rounded=1;whiteSpace=wrap;html=1;" vertex="1" parent="1">
          <mxGeometry x="5485" y="830" width="120" height="60" as="geometry" />
        </mxCell>
      </root>
    </mxGraphModel>
  </diagram>
  <diagram id="F8BJMoUzOm3DmOloPWbD" name="Page-2">
    <mxGraphModel dx="2597" dy="1104" grid="1" gridSize="10" guides="1" tooltips="1" connect="1" arrows="1" fold="1" page="1" pageScale="1" pageWidth="850" pageHeight="1100" math="0" shadow="0">
      <root>
        <mxCell id="0" />
        <mxCell id="1" parent="0" />
        <mxCell id="dSnv0WfbyLthvF4rif75-1" value="" style="rounded=0;whiteSpace=wrap;html=1;fillColor=#60a917;strokeColor=#2D7600;fillStyle=cross-hatch;fontColor=#ffffff;" vertex="1" parent="1">
          <mxGeometry x="650" y="2090.61" width="660" height="345" as="geometry" />
        </mxCell>
        <mxCell id="dSnv0WfbyLthvF4rif75-3" value="" style="rounded=0;whiteSpace=wrap;html=1;fillColor=#e51400;fontColor=#ffffff;strokeColor=#B20000;fillStyle=cross-hatch;" vertex="1" parent="1">
          <mxGeometry x="-30" y="860" width="1330" height="990" as="geometry" />
        </mxCell>
        <mxCell id="dSnv0WfbyLthvF4rif75-68" value="" style="group;fillColor=default;strokeColor=default;rounded=1;" vertex="1" connectable="0" parent="1">
          <mxGeometry x="620" y="1110" width="540" height="200" as="geometry" />
        </mxCell>
        <mxCell id="dSnv0WfbyLthvF4rif75-70" value="&lt;span style=&quot;color: rgba(0, 0, 0, 0); font-family: monospace; font-size: 0px; text-align: start; text-wrap-mode: nowrap;&quot;&gt;Sl&lt;/span&gt;" style="rounded=1;whiteSpace=wrap;html=1;fillColor=none;" vertex="1" parent="dSnv0WfbyLthvF4rif75-68">
          <mxGeometry x="190" y="50" width="160" height="130" as="geometry" />
        </mxCell>
        <mxCell id="dSnv0WfbyLthvF4rif75-71" style="edgeStyle=orthogonalEdgeStyle;rounded=0;orthogonalLoop=1;jettySize=auto;html=1;exitX=1;exitY=0.5;exitDx=0;exitDy=0;entryX=0;entryY=0.5;entryDx=0;entryDy=0;" edge="1" parent="dSnv0WfbyLthvF4rif75-68" source="dSnv0WfbyLthvF4rif75-72" target="dSnv0WfbyLthvF4rif75-70">
          <mxGeometry relative="1" as="geometry" />
        </mxCell>
        <mxCell id="dSnv0WfbyLthvF4rif75-72" value="&lt;h2&gt;Source A&lt;/h2&gt;" style="rounded=1;whiteSpace=wrap;html=1;" vertex="1" parent="dSnv0WfbyLthvF4rif75-68">
          <mxGeometry x="20" y="50" width="120" height="130" as="geometry" />
        </mxCell>
        <mxCell id="dSnv0WfbyLthvF4rif75-73" style="edgeStyle=orthogonalEdgeStyle;rounded=0;orthogonalLoop=1;jettySize=auto;html=1;exitX=0;exitY=0.5;exitDx=0;exitDy=0;entryX=1;entryY=0.5;entryDx=0;entryDy=0;" edge="1" parent="dSnv0WfbyLthvF4rif75-68" source="dSnv0WfbyLthvF4rif75-74" target="dSnv0WfbyLthvF4rif75-70">
          <mxGeometry relative="1" as="geometry" />
        </mxCell>
        <mxCell id="dSnv0WfbyLthvF4rif75-74" value="&lt;h2&gt;Source B&lt;/h2&gt;" style="rounded=1;whiteSpace=wrap;html=1;" vertex="1" parent="dSnv0WfbyLthvF4rif75-68">
          <mxGeometry x="400" y="50" width="120" height="130" as="geometry" />
        </mxCell>
        <mxCell id="dSnv0WfbyLthvF4rif75-75" value="Alpha" style="rounded=1;whiteSpace=wrap;html=1;" vertex="1" parent="dSnv0WfbyLthvF4rif75-68">
          <mxGeometry x="210" y="90" width="120" height="20" as="geometry" />
        </mxCell>
        <mxCell id="dSnv0WfbyLthvF4rif75-76" value="Chroma Keying" style="rounded=1;whiteSpace=wrap;html=1;" vertex="1" parent="dSnv0WfbyLthvF4rif75-68">
          <mxGeometry x="210" y="120" width="120" height="20" as="geometry" />
        </mxCell>
        <mxCell id="dSnv0WfbyLthvF4rif75-77" value="Luma Keying" style="rounded=1;whiteSpace=wrap;html=1;" vertex="1" parent="dSnv0WfbyLthvF4rif75-68">
          <mxGeometry x="210" y="150" width="120" height="20" as="geometry" />
        </mxCell>
        <mxCell id="dSnv0WfbyLthvF4rif75-78" value="&lt;h3&gt;Blend Modes&lt;/h3&gt;" style="text;html=1;align=center;verticalAlign=middle;whiteSpace=wrap;rounded=0;fontSize=16;" vertex="1" parent="dSnv0WfbyLthvF4rif75-68">
          <mxGeometry x="210" y="50" width="120" height="30" as="geometry" />
        </mxCell>
        <mxCell id="dSnv0WfbyLthvF4rif75-79" value="&lt;h1&gt;Mixer&lt;/h1&gt;" style="text;html=1;align=center;verticalAlign=middle;whiteSpace=wrap;rounded=0;fontSize=16;" vertex="1" parent="dSnv0WfbyLthvF4rif75-68">
          <mxGeometry x="220" y="10" width="100" height="30" as="geometry" />
        </mxCell>
        <mxCell id="dSnv0WfbyLthvF4rif75-131" value="&lt;h1&gt;&lt;br&gt;&lt;/h1&gt;" style="rounded=1;whiteSpace=wrap;html=1;" vertex="1" parent="1">
          <mxGeometry x="295.5" y="1910" width="680" height="140" as="geometry" />
        </mxCell>
        <mxCell id="acCK0oONIXdgHGkuolO0-40" style="edgeStyle=orthogonalEdgeStyle;rounded=0;orthogonalLoop=1;jettySize=auto;html=1;exitX=1;exitY=0.5;exitDx=0;exitDy=0;entryX=0;entryY=0.5;entryDx=0;entryDy=0;" edge="1" parent="1" source="acCK0oONIXdgHGkuolO0-71" target="dSnv0WfbyLthvF4rif75-99">
          <mxGeometry relative="1" as="geometry" />
        </mxCell>
        <mxCell id="dSnv0WfbyLthvF4rif75-4" value="&lt;h1&gt;&lt;br&gt;&lt;/h1&gt;" style="rounded=1;whiteSpace=wrap;html=1;" vertex="1" parent="1">
          <mxGeometry x="325" y="870" width="930" height="90" as="geometry" />
        </mxCell>
        <mxCell id="dSnv0WfbyLthvF4rif75-5" style="edgeStyle=orthogonalEdgeStyle;rounded=0;orthogonalLoop=1;jettySize=auto;html=1;exitX=0.5;exitY=1;exitDx=0;exitDy=0;entryX=0.5;entryY=0;entryDx=0;entryDy=0;curved=1;" edge="1" parent="1" source="dSnv0WfbyLthvF4rif75-7" target="dSnv0WfbyLthvF4rif75-72">
          <mxGeometry relative="1" as="geometry" />
        </mxCell>
        <mxCell id="dSnv0WfbyLthvF4rif75-6" style="edgeStyle=orthogonalEdgeStyle;rounded=0;orthogonalLoop=1;jettySize=auto;html=1;exitX=0.5;exitY=1;exitDx=0;exitDy=0;entryX=0.5;entryY=0;entryDx=0;entryDy=0;curved=1;" edge="1" parent="1" source="dSnv0WfbyLthvF4rif75-7" target="dSnv0WfbyLthvF4rif75-74">
          <mxGeometry relative="1" as="geometry" />
        </mxCell>
        <mxCell id="dSnv0WfbyLthvF4rif75-7" value="Webcam" style="rounded=1;whiteSpace=wrap;html=1;" vertex="1" parent="1">
          <mxGeometry x="335" y="920" width="120" height="20" as="geometry" />
        </mxCell>
        <mxCell id="dSnv0WfbyLthvF4rif75-8" style="edgeStyle=orthogonalEdgeStyle;rounded=0;orthogonalLoop=1;jettySize=auto;html=1;exitX=0.5;exitY=1;exitDx=0;exitDy=0;curved=1;entryX=0.5;entryY=0;entryDx=0;entryDy=0;" edge="1" parent="1" source="dSnv0WfbyLthvF4rif75-11" target="dSnv0WfbyLthvF4rif75-72">
          <mxGeometry relative="1" as="geometry">
            <mxPoint x="600" y="1150" as="targetPoint" />
          </mxGeometry>
        </mxCell>
        <mxCell id="dSnv0WfbyLthvF4rif75-9" style="edgeStyle=orthogonalEdgeStyle;rounded=0;orthogonalLoop=1;jettySize=auto;html=1;exitX=0.5;exitY=1;exitDx=0;exitDy=0;curved=1;entryX=0.5;entryY=0;entryDx=0;entryDy=0;" edge="1" parent="1" source="dSnv0WfbyLthvF4rif75-11" target="dSnv0WfbyLthvF4rif75-74">
          <mxGeometry relative="1" as="geometry">
            <mxPoint x="980" y="1150" as="targetPoint" />
          </mxGeometry>
        </mxCell>
        <mxCell id="acCK0oONIXdgHGkuolO0-36" style="edgeStyle=orthogonalEdgeStyle;rounded=0;orthogonalLoop=1;jettySize=auto;html=1;exitX=0.25;exitY=0;exitDx=0;exitDy=0;entryX=0.371;entryY=1.01;entryDx=0;entryDy=0;entryPerimeter=0;" edge="1" parent="1" source="dSnv0WfbyLthvF4rif75-11" target="acCK0oONIXdgHGkuolO0-35">
          <mxGeometry relative="1" as="geometry">
            <mxPoint x="625" y="820" as="targetPoint" />
          </mxGeometry>
        </mxCell>
        <mxCell id="dSnv0WfbyLthvF4rif75-11" value="HDMI USB Capture with pass thru" style="rounded=1;whiteSpace=wrap;html=1;" vertex="1" parent="1">
          <mxGeometry x="595" y="890" width="120" height="50" as="geometry" />
        </mxCell>
        <mxCell id="dSnv0WfbyLthvF4rif75-12" style="edgeStyle=orthogonalEdgeStyle;rounded=0;orthogonalLoop=1;jettySize=auto;html=1;exitX=0.5;exitY=1;exitDx=0;exitDy=0;entryX=0.5;entryY=0;entryDx=0;entryDy=0;curved=1;" edge="1" parent="1" source="dSnv0WfbyLthvF4rif75-14" target="dSnv0WfbyLthvF4rif75-72">
          <mxGeometry relative="1" as="geometry" />
        </mxCell>
        <mxCell id="dSnv0WfbyLthvF4rif75-13" style="edgeStyle=orthogonalEdgeStyle;rounded=0;orthogonalLoop=1;jettySize=auto;html=1;exitX=0.5;exitY=1;exitDx=0;exitDy=0;entryX=0.5;entryY=0;entryDx=0;entryDy=0;curved=1;" edge="1" parent="1" source="dSnv0WfbyLthvF4rif75-14" target="dSnv0WfbyLthvF4rif75-74">
          <mxGeometry relative="1" as="geometry" />
        </mxCell>
        <mxCell id="dSnv0WfbyLthvF4rif75-14" value="Composite USB Cap." style="rounded=1;whiteSpace=wrap;html=1;" vertex="1" parent="1">
          <mxGeometry x="465" y="920" width="120" height="20" as="geometry" />
        </mxCell>
        <mxCell id="dSnv0WfbyLthvF4rif75-15" style="edgeStyle=orthogonalEdgeStyle;rounded=0;orthogonalLoop=1;jettySize=auto;html=1;exitX=0.5;exitY=1;exitDx=0;exitDy=0;curved=1;entryX=0.5;entryY=0;entryDx=0;entryDy=0;" edge="1" parent="1" source="dSnv0WfbyLthvF4rif75-17" target="dSnv0WfbyLthvF4rif75-72">
          <mxGeometry relative="1" as="geometry">
            <mxPoint x="600" y="1150" as="targetPoint" />
          </mxGeometry>
        </mxCell>
        <mxCell id="dSnv0WfbyLthvF4rif75-16" style="edgeStyle=orthogonalEdgeStyle;rounded=0;orthogonalLoop=1;jettySize=auto;html=1;exitX=0.5;exitY=1;exitDx=0;exitDy=0;entryX=0.5;entryY=0;entryDx=0;entryDy=0;curved=1;" edge="1" parent="1" source="dSnv0WfbyLthvF4rif75-17" target="dSnv0WfbyLthvF4rif75-74">
          <mxGeometry relative="1" as="geometry" />
        </mxCell>
        <mxCell id="dSnv0WfbyLthvF4rif75-17" value="Metaballs" style="rounded=1;whiteSpace=wrap;html=1;" vertex="1" parent="1">
          <mxGeometry x="725" y="920" width="120" height="20" as="geometry" />
        </mxCell>
        <mxCell id="dSnv0WfbyLthvF4rif75-18" style="edgeStyle=orthogonalEdgeStyle;rounded=0;orthogonalLoop=1;jettySize=auto;html=1;exitX=0.5;exitY=1;exitDx=0;exitDy=0;entryX=0.5;entryY=0;entryDx=0;entryDy=0;curved=1;" edge="1" parent="1" source="dSnv0WfbyLthvF4rif75-20" target="dSnv0WfbyLthvF4rif75-72">
          <mxGeometry relative="1" as="geometry">
            <mxPoint x="600" y="1160" as="targetPoint" />
          </mxGeometry>
        </mxCell>
        <mxCell id="dSnv0WfbyLthvF4rif75-19" style="edgeStyle=orthogonalEdgeStyle;rounded=0;orthogonalLoop=1;jettySize=auto;html=1;exitX=0.5;exitY=1;exitDx=0;exitDy=0;entryX=0.5;entryY=0;entryDx=0;entryDy=0;curved=1;" edge="1" parent="1" source="dSnv0WfbyLthvF4rif75-20" target="dSnv0WfbyLthvF4rif75-74">
          <mxGeometry relative="1" as="geometry" />
        </mxCell>
        <mxCell id="dSnv0WfbyLthvF4rif75-20" value="Plasma" style="rounded=1;whiteSpace=wrap;html=1;" vertex="1" parent="1">
          <mxGeometry x="855" y="920" width="120" height="20" as="geometry" />
        </mxCell>
        <mxCell id="dSnv0WfbyLthvF4rif75-21" style="edgeStyle=orthogonalEdgeStyle;rounded=0;orthogonalLoop=1;jettySize=auto;html=1;exitX=0.5;exitY=1;exitDx=0;exitDy=0;entryX=0.5;entryY=0;entryDx=0;entryDy=0;curved=1;" edge="1" parent="1" source="dSnv0WfbyLthvF4rif75-23" target="dSnv0WfbyLthvF4rif75-72">
          <mxGeometry relative="1" as="geometry" />
        </mxCell>
        <mxCell id="dSnv0WfbyLthvF4rif75-22" style="edgeStyle=orthogonalEdgeStyle;rounded=0;orthogonalLoop=1;jettySize=auto;html=1;exitX=0.5;exitY=1;exitDx=0;exitDy=0;curved=1;" edge="1" parent="1" source="dSnv0WfbyLthvF4rif75-23" target="dSnv0WfbyLthvF4rif75-74">
          <mxGeometry relative="1" as="geometry" />
        </mxCell>
        <mxCell id="dSnv0WfbyLthvF4rif75-23" value="Reaction Diffusion" style="rounded=1;whiteSpace=wrap;html=1;" vertex="1" parent="1">
          <mxGeometry x="985" y="920" width="120" height="20" as="geometry" />
        </mxCell>
        <mxCell id="dSnv0WfbyLthvF4rif75-24" style="edgeStyle=orthogonalEdgeStyle;rounded=0;orthogonalLoop=1;jettySize=auto;html=1;exitX=0.5;exitY=1;exitDx=0;exitDy=0;curved=1;entryX=0.5;entryY=0;entryDx=0;entryDy=0;" edge="1" parent="1" source="dSnv0WfbyLthvF4rif75-26" target="dSnv0WfbyLthvF4rif75-72">
          <mxGeometry relative="1" as="geometry">
            <mxPoint x="600" y="1150" as="targetPoint" />
          </mxGeometry>
        </mxCell>
        <mxCell id="dSnv0WfbyLthvF4rif75-25" style="edgeStyle=orthogonalEdgeStyle;rounded=0;orthogonalLoop=1;jettySize=auto;html=1;exitX=0.5;exitY=1;exitDx=0;exitDy=0;entryX=0.5;entryY=0;entryDx=0;entryDy=0;curved=1;" edge="1" parent="1" source="dSnv0WfbyLthvF4rif75-26" target="dSnv0WfbyLthvF4rif75-74">
          <mxGeometry relative="1" as="geometry" />
        </mxCell>
        <mxCell id="dSnv0WfbyLthvF4rif75-26" value="Moire" style="rounded=1;whiteSpace=wrap;html=1;" vertex="1" parent="1">
          <mxGeometry x="1115" y="920" width="120" height="20" as="geometry" />
        </mxCell>
        <mxCell id="dSnv0WfbyLthvF4rif75-27" value="&lt;h1&gt;Sources&lt;/h1&gt;" style="text;html=1;align=center;verticalAlign=middle;whiteSpace=wrap;rounded=0;fontSize=16;" vertex="1" parent="1">
          <mxGeometry x="735" y="880" width="100" height="30" as="geometry" />
        </mxCell>
        <mxCell id="dSnv0WfbyLthvF4rif75-28" value="&lt;h1&gt;&lt;br&gt;&lt;/h1&gt;" style="rounded=1;whiteSpace=wrap;html=1;" vertex="1" parent="1">
          <mxGeometry x="325" y="1380" width="930" height="120" as="geometry" />
        </mxCell>
        <mxCell id="dSnv0WfbyLthvF4rif75-29" value="HSV" style="rounded=1;whiteSpace=wrap;html=1;" vertex="1" parent="1">
          <mxGeometry x="335" y="1430" width="120" height="20" as="geometry" />
        </mxCell>
        <mxCell id="dSnv0WfbyLthvF4rif75-30" value="Contrast&amp;amp;Brightness" style="rounded=1;whiteSpace=wrap;html=1;" vertex="1" parent="1">
          <mxGeometry x="465" y="1430" width="120" height="20" as="geometry" />
        </mxCell>
        <mxCell id="dSnv0WfbyLthvF4rif75-31" value="Sharpness" style="rounded=1;whiteSpace=wrap;html=1;" vertex="1" parent="1">
          <mxGeometry x="595" y="1430" width="120" height="20" as="geometry" />
        </mxCell>
        <mxCell id="dSnv0WfbyLthvF4rif75-32" value="Blur" style="rounded=1;whiteSpace=wrap;html=1;" vertex="1" parent="1">
          <mxGeometry x="725" y="1430" width="120" height="20" as="geometry" />
        </mxCell>
        <mxCell id="dSnv0WfbyLthvF4rif75-33" value="Sync Emulation" style="rounded=1;whiteSpace=wrap;html=1;" vertex="1" parent="1">
          <mxGeometry x="855" y="1430" width="120" height="20" as="geometry" />
        </mxCell>
        <mxCell id="dSnv0WfbyLthvF4rif75-34" value="PTZ" style="rounded=1;whiteSpace=wrap;html=1;" vertex="1" parent="1">
          <mxGeometry x="985" y="1430" width="120" height="20" as="geometry" />
        </mxCell>
        <mxCell id="dSnv0WfbyLthvF4rif75-35" value="Reflection" style="rounded=1;whiteSpace=wrap;html=1;" vertex="1" parent="1">
          <mxGeometry x="1115" y="1430" width="120" height="20" as="geometry" />
        </mxCell>
        <mxCell id="dSnv0WfbyLthvF4rif75-36" value="&lt;h1&gt;Effects&lt;/h1&gt;" style="text;html=1;align=center;verticalAlign=middle;whiteSpace=wrap;rounded=0;fontSize=16;" vertex="1" parent="1">
          <mxGeometry x="740" y="1390" width="100" height="30" as="geometry" />
        </mxCell>
        <mxCell id="dSnv0WfbyLthvF4rif75-37" value="Noise" style="rounded=1;whiteSpace=wrap;html=1;" vertex="1" parent="1">
          <mxGeometry x="335" y="1460" width="120" height="20" as="geometry" />
        </mxCell>
        <mxCell id="dSnv0WfbyLthvF4rif75-38" value="Glitch" style="rounded=1;whiteSpace=wrap;html=1;" vertex="1" parent="1">
          <mxGeometry x="465" y="1460" width="120" height="20" as="geometry" />
        </mxCell>
        <mxCell id="dSnv0WfbyLthvF4rif75-39" value="Warp" style="rounded=1;whiteSpace=wrap;html=1;" vertex="1" parent="1">
          <mxGeometry x="595" y="1460" width="120" height="20" as="geometry" />
        </mxCell>
        <mxCell id="dSnv0WfbyLthvF4rif75-40" value="Patterns" style="rounded=1;whiteSpace=wrap;html=1;" vertex="1" parent="1">
          <mxGeometry x="725" y="1460" width="120" height="20" as="geometry" />
        </mxCell>
        <mxCell id="dSnv0WfbyLthvF4rif75-41" value="Shapes" style="rounded=1;whiteSpace=wrap;html=1;" vertex="1" parent="1">
          <mxGeometry x="855" y="1460" width="120" height="20" as="geometry" />
        </mxCell>
        <mxCell id="dSnv0WfbyLthvF4rif75-42" value="" style="rounded=1;whiteSpace=wrap;html=1;" vertex="1" parent="1">
          <mxGeometry x="985" y="1460" width="120" height="20" as="geometry" />
        </mxCell>
        <mxCell id="dSnv0WfbyLthvF4rif75-43" value="" style="rounded=1;whiteSpace=wrap;html=1;" vertex="1" parent="1">
          <mxGeometry x="1115" y="1460" width="120" height="20" as="geometry" />
        </mxCell>
        <mxCell id="dSnv0WfbyLthvF4rif75-44" style="edgeStyle=orthogonalEdgeStyle;rounded=0;orthogonalLoop=1;jettySize=auto;html=1;exitX=0.5;exitY=1;exitDx=0;exitDy=0;entryX=0.5;entryY=0;entryDx=0;entryDy=0;" edge="1" parent="1" target="dSnv0WfbyLthvF4rif75-28">
          <mxGeometry relative="1" as="geometry">
            <mxPoint x="770" y="1360" as="targetPoint" />
            <mxPoint x="890" y="1310.0000000000002" as="sourcePoint" />
          </mxGeometry>
        </mxCell>
        <mxCell id="dSnv0WfbyLthvF4rif75-45" value="Mixed, Raw frame" style="edgeLabel;html=1;align=center;verticalAlign=middle;resizable=0;points=[];" vertex="1" connectable="0" parent="dSnv0WfbyLthvF4rif75-44">
          <mxGeometry x="-0.1361" y="1" relative="1" as="geometry">
            <mxPoint as="offset" />
          </mxGeometry>
        </mxCell>
        <mxCell id="dSnv0WfbyLthvF4rif75-46" style="edgeStyle=orthogonalEdgeStyle;rounded=0;orthogonalLoop=1;jettySize=auto;html=1;exitX=1;exitY=0.812;exitDx=0;exitDy=0;entryX=0;entryY=0.5;entryDx=0;entryDy=0;exitPerimeter=0;" edge="1" parent="1" source="dSnv0WfbyLthvF4rif75-54" target="dSnv0WfbyLthvF4rif75-28">
          <mxGeometry relative="1" as="geometry">
            <Array as="points">
              <mxPoint x="275" y="1440" />
            </Array>
          </mxGeometry>
        </mxCell>
        <mxCell id="dSnv0WfbyLthvF4rif75-47" value="Param&lt;div&gt;Ctrl&lt;/div&gt;" style="edgeLabel;html=1;align=center;verticalAlign=middle;resizable=0;points=[];" vertex="1" connectable="0" parent="dSnv0WfbyLthvF4rif75-46">
          <mxGeometry x="-0.1304" relative="1" as="geometry">
            <mxPoint x="19" y="-74" as="offset" />
          </mxGeometry>
        </mxCell>
        <mxCell id="dSnv0WfbyLthvF4rif75-48" style="edgeStyle=orthogonalEdgeStyle;rounded=0;orthogonalLoop=1;jettySize=auto;html=1;exitX=1;exitY=0.25;exitDx=0;exitDy=0;entryX=0;entryY=0.5;entryDx=0;entryDy=0;" edge="1" parent="1" source="dSnv0WfbyLthvF4rif75-54">
          <mxGeometry relative="1" as="geometry">
            <Array as="points">
              <mxPoint x="220" y="1090" />
              <mxPoint x="570" y="1090" />
              <mxPoint x="570" y="1210" />
            </Array>
            <mxPoint x="620" y="1210" as="targetPoint" />
          </mxGeometry>
        </mxCell>
        <mxCell id="dSnv0WfbyLthvF4rif75-49" value="Param Control" style="edgeLabel;html=1;align=center;verticalAlign=middle;resizable=0;points=[];" vertex="1" connectable="0" parent="dSnv0WfbyLthvF4rif75-48">
          <mxGeometry x="-0.1671" y="2" relative="1" as="geometry">
            <mxPoint as="offset" />
          </mxGeometry>
        </mxCell>
        <mxCell id="dSnv0WfbyLthvF4rif75-50" style="edgeStyle=orthogonalEdgeStyle;rounded=0;orthogonalLoop=1;jettySize=auto;html=1;exitX=0.999;exitY=0.209;exitDx=0;exitDy=0;exitPerimeter=0;" edge="1" parent="1" source="dSnv0WfbyLthvF4rif75-54" target="dSnv0WfbyLthvF4rif75-61">
          <mxGeometry relative="1" as="geometry">
            <Array as="points">
              <mxPoint x="280" y="1224" />
              <mxPoint x="280" y="1220" />
            </Array>
          </mxGeometry>
        </mxCell>
        <mxCell id="dSnv0WfbyLthvF4rif75-51" value="Param&lt;div&gt;Ctrl&lt;/div&gt;" style="edgeLabel;html=1;align=center;verticalAlign=middle;resizable=0;points=[];" vertex="1" connectable="0" parent="dSnv0WfbyLthvF4rif75-50">
          <mxGeometry x="0.0943" relative="1" as="geometry">
            <mxPoint x="-9" as="offset" />
          </mxGeometry>
        </mxCell>
        <mxCell id="acCK0oONIXdgHGkuolO0-58" style="edgeStyle=orthogonalEdgeStyle;rounded=0;orthogonalLoop=1;jettySize=auto;html=1;exitX=0.25;exitY=1;exitDx=0;exitDy=0;entryX=0.5;entryY=0;entryDx=0;entryDy=0;" edge="1" parent="1" source="dSnv0WfbyLthvF4rif75-54" target="acCK0oONIXdgHGkuolO0-7">
          <mxGeometry relative="1" as="geometry">
            <Array as="points">
              <mxPoint x="55" y="1710" />
              <mxPoint x="-150" y="1710" />
            </Array>
          </mxGeometry>
        </mxCell>
        <mxCell id="acCK0oONIXdgHGkuolO0-66" style="edgeStyle=orthogonalEdgeStyle;rounded=0;orthogonalLoop=1;jettySize=auto;html=1;entryX=0;entryY=0.5;entryDx=0;entryDy=0;exitX=0.981;exitY=0.967;exitDx=0;exitDy=0;exitPerimeter=0;" edge="1" parent="1" source="dSnv0WfbyLthvF4rif75-54" target="dSnv0WfbyLthvF4rif75-83">
          <mxGeometry relative="1" as="geometry" />
        </mxCell>
        <mxCell id="acCK0oONIXdgHGkuolO0-67" value="Parm Ctrl" style="edgeLabel;html=1;align=center;verticalAlign=middle;resizable=0;points=[];" vertex="1" connectable="0" parent="acCK0oONIXdgHGkuolO0-66">
          <mxGeometry x="-0.4116" y="-4" relative="1" as="geometry">
            <mxPoint x="1" as="offset" />
          </mxGeometry>
        </mxCell>
        <mxCell id="dSnv0WfbyLthvF4rif75-54" value="" style="rounded=1;whiteSpace=wrap;html=1;" vertex="1" parent="1">
          <mxGeometry x="-25" y="1090" width="300" height="640" as="geometry" />
        </mxCell>
        <mxCell id="dSnv0WfbyLthvF4rif75-55" value="&lt;h1&gt;MIDI Controller&lt;/h1&gt;" style="text;html=1;align=center;verticalAlign=middle;whiteSpace=wrap;rounded=0;fontSize=16;" vertex="1" parent="1">
          <mxGeometry x="65" y="1110" width="100" height="50" as="geometry" />
        </mxCell>
        <mxCell id="dSnv0WfbyLthvF4rif75-58" style="edgeStyle=orthogonalEdgeStyle;rounded=0;orthogonalLoop=1;jettySize=auto;html=1;exitX=0.5;exitY=1;exitDx=0;exitDy=0;entryX=0.114;entryY=0.023;entryDx=0;entryDy=0;entryPerimeter=0;" edge="1" parent="1" source="dSnv0WfbyLthvF4rif75-61" target="dSnv0WfbyLthvF4rif75-28">
          <mxGeometry relative="1" as="geometry" />
        </mxCell>
        <mxCell id="dSnv0WfbyLthvF4rif75-59" value="Automated Param Control" style="edgeLabel;html=1;align=center;verticalAlign=middle;resizable=0;points=[];" vertex="1" connectable="0" parent="dSnv0WfbyLthvF4rif75-58">
          <mxGeometry x="0.1917" y="4" relative="1" as="geometry">
            <mxPoint y="-10" as="offset" />
          </mxGeometry>
        </mxCell>
        <mxCell id="dSnv0WfbyLthvF4rif75-60" value="" style="group" vertex="1" connectable="0" parent="1">
          <mxGeometry x="330" y="1110" width="190" height="220" as="geometry" />
        </mxCell>
        <mxCell id="dSnv0WfbyLthvF4rif75-61" value="" style="rounded=1;whiteSpace=wrap;html=1;" vertex="1" parent="dSnv0WfbyLthvF4rif75-60">
          <mxGeometry width="190" height="210" as="geometry" />
        </mxCell>
        <mxCell id="dSnv0WfbyLthvF4rif75-62" value="Sine" style="rounded=1;whiteSpace=wrap;html=1;" vertex="1" parent="dSnv0WfbyLthvF4rif75-60">
          <mxGeometry x="32.5" y="50" width="120" height="20" as="geometry" />
        </mxCell>
        <mxCell id="dSnv0WfbyLthvF4rif75-63" value="Square" style="rounded=1;whiteSpace=wrap;html=1;" vertex="1" parent="dSnv0WfbyLthvF4rif75-60">
          <mxGeometry x="32.5" y="80" width="120" height="20" as="geometry" />
        </mxCell>
        <mxCell id="dSnv0WfbyLthvF4rif75-64" value="Triangle" style="rounded=1;whiteSpace=wrap;html=1;" vertex="1" parent="dSnv0WfbyLthvF4rif75-60">
          <mxGeometry x="32.5" y="110" width="120" height="20" as="geometry" />
        </mxCell>
        <mxCell id="dSnv0WfbyLthvF4rif75-65" value="Sawtooth" style="rounded=1;whiteSpace=wrap;html=1;" vertex="1" parent="dSnv0WfbyLthvF4rif75-60">
          <mxGeometry x="32.5" y="140" width="120" height="20" as="geometry" />
        </mxCell>
        <mxCell id="dSnv0WfbyLthvF4rif75-66" value="Perlin Noise" style="rounded=1;whiteSpace=wrap;html=1;" vertex="1" parent="dSnv0WfbyLthvF4rif75-60">
          <mxGeometry x="32.5" y="170" width="120" height="20" as="geometry" />
        </mxCell>
        <mxCell id="dSnv0WfbyLthvF4rif75-67" value="&lt;h1&gt;Oscillators&lt;/h1&gt;" style="text;html=1;align=center;verticalAlign=middle;whiteSpace=wrap;rounded=0;fontSize=16;" vertex="1" parent="dSnv0WfbyLthvF4rif75-60">
          <mxGeometry x="45" y="10" width="100" height="30" as="geometry" />
        </mxCell>
        <mxCell id="acCK0oONIXdgHGkuolO0-59" style="edgeStyle=orthogonalEdgeStyle;rounded=0;orthogonalLoop=1;jettySize=auto;html=1;exitX=0.5;exitY=1;exitDx=0;exitDy=0;entryX=0.5;entryY=0;entryDx=0;entryDy=0;" edge="1" parent="1" source="dSnv0WfbyLthvF4rif75-81" target="tsxarfvfpo1-gq6XZQbR-32">
          <mxGeometry relative="1" as="geometry" />
        </mxCell>
        <mxCell id="dSnv0WfbyLthvF4rif75-81" value="" style="rounded=1;whiteSpace=wrap;html=1;fillColor=default;" vertex="1" parent="1">
          <mxGeometry x="390" y="1600" width="820" height="230" as="geometry" />
        </mxCell>
        <mxCell id="dSnv0WfbyLthvF4rif75-82" style="edgeStyle=orthogonalEdgeStyle;rounded=0;orthogonalLoop=1;jettySize=auto;html=1;exitX=1;exitY=0.5;exitDx=0;exitDy=0;entryX=0;entryY=0.5;entryDx=0;entryDy=0;" edge="1" parent="1" source="dSnv0WfbyLthvF4rif75-83" target="dSnv0WfbyLthvF4rif75-85">
          <mxGeometry relative="1" as="geometry" />
        </mxCell>
        <mxCell id="dSnv0WfbyLthvF4rif75-83" value="&lt;h2&gt;&lt;span style=&quot;background-color: transparent; color: light-dark(rgb(0, 0, 0), rgb(255, 255, 255)); font-size: 12px; font-weight: normal;&quot;&gt;&lt;br&gt;&lt;/span&gt;&lt;/h2&gt;&lt;h2&gt;&lt;span style=&quot;background-color: transparent; color: light-dark(rgb(0, 0, 0), rgb(255, 255, 255)); font-size: 12px; font-weight: normal;&quot;&gt;Mixes modified frame with raw frame&lt;/span&gt;&lt;/h2&gt;" style="rounded=1;whiteSpace=wrap;html=1;" vertex="1" parent="1">
          <mxGeometry x="420" y="1666.26" width="210" height="120" as="geometry" />
        </mxCell>
        <mxCell id="dSnv0WfbyLthvF4rif75-84" style="edgeStyle=orthogonalEdgeStyle;rounded=0;orthogonalLoop=1;jettySize=auto;html=1;exitX=1;exitY=0.5;exitDx=0;exitDy=0;entryX=0;entryY=0.5;entryDx=0;entryDy=0;" edge="1" parent="1" source="dSnv0WfbyLthvF4rif75-85" target="dSnv0WfbyLthvF4rif75-89">
          <mxGeometry relative="1" as="geometry" />
        </mxCell>
        <mxCell id="dSnv0WfbyLthvF4rif75-85" value="&lt;h2&gt;&lt;br&gt;&lt;/h2&gt;&lt;div&gt;Mixes current alpha-blended frame with previous alpha-blended frame&lt;/div&gt;" style="rounded=1;whiteSpace=wrap;html=1;" vertex="1" parent="1">
          <mxGeometry x="690" y="1666.26" width="210" height="120" as="geometry" />
        </mxCell>
        <mxCell id="dSnv0WfbyLthvF4rif75-86" value="&lt;h3&gt;Alpha Blend&lt;/h3&gt;" style="text;html=1;align=center;verticalAlign=middle;whiteSpace=wrap;rounded=0;fontSize=16;" vertex="1" parent="1">
          <mxGeometry x="465" y="1686.26" width="120" height="30" as="geometry" />
        </mxCell>
        <mxCell id="dSnv0WfbyLthvF4rif75-87" value="&lt;h3&gt;Temporal Filter&lt;/h3&gt;" style="text;html=1;align=center;verticalAlign=middle;whiteSpace=wrap;rounded=0;fontSize=16;" vertex="1" parent="1">
          <mxGeometry x="720" y="1680" width="150" height="30" as="geometry" />
        </mxCell>
        <mxCell id="dSnv0WfbyLthvF4rif75-89" value="&lt;div&gt;&lt;br&gt;&lt;/div&gt;&lt;div&gt;&lt;br&gt;&lt;/div&gt;&lt;div&gt;&lt;br&gt;&lt;/div&gt;Stores temporally-filtered frame into variable length frame buffer and averages them" style="rounded=1;whiteSpace=wrap;html=1;" vertex="1" parent="1">
          <mxGeometry x="960" y="1666.26" width="210" height="120" as="geometry" />
        </mxCell>
        <mxCell id="dSnv0WfbyLthvF4rif75-90" value="&lt;h3&gt;Frame Buffer&lt;/h3&gt;" style="text;html=1;align=center;verticalAlign=middle;whiteSpace=wrap;rounded=0;fontSize=16;" vertex="1" parent="1">
          <mxGeometry x="995" y="1672.52" width="150" height="30" as="geometry" />
        </mxCell>
        <mxCell id="dSnv0WfbyLthvF4rif75-91" value="&lt;h1&gt;Feedback&lt;/h1&gt;" style="text;html=1;align=center;verticalAlign=middle;whiteSpace=wrap;rounded=0;fontSize=16;" vertex="1" parent="1">
          <mxGeometry x="745" y="1610" width="100" height="30" as="geometry" />
        </mxCell>
        <mxCell id="dSnv0WfbyLthvF4rif75-92" value="Mixed,Raw frame" style="edgeStyle=orthogonalEdgeStyle;rounded=0;orthogonalLoop=1;jettySize=auto;html=1;exitX=1;exitY=0.5;exitDx=0;exitDy=0;entryX=0.5;entryY=0;entryDx=0;entryDy=0;" edge="1" parent="1" target="dSnv0WfbyLthvF4rif75-83">
          <mxGeometry x="-0.9099" relative="1" as="geometry">
            <Array as="points">
              <mxPoint x="1280" y="1210" />
              <mxPoint x="1280" y="1570" />
              <mxPoint x="525" y="1570" />
            </Array>
            <mxPoint as="offset" />
            <mxPoint x="1160" y="1210" as="sourcePoint" />
          </mxGeometry>
        </mxCell>
        <mxCell id="dSnv0WfbyLthvF4rif75-93" value="Raw Frame" style="edgeLabel;html=1;align=center;verticalAlign=middle;resizable=0;points=[];" vertex="1" connectable="0" parent="dSnv0WfbyLthvF4rif75-92">
          <mxGeometry x="0.8135" y="-1" relative="1" as="geometry">
            <mxPoint x="27" as="offset" />
          </mxGeometry>
        </mxCell>
        <mxCell id="acCK0oONIXdgHGkuolO0-87" value="" style="edgeStyle=orthogonalEdgeStyle;rounded=0;orthogonalLoop=1;jettySize=auto;html=1;" edge="1" parent="1" source="dSnv0WfbyLthvF4rif75-97" target="acCK0oONIXdgHGkuolO0-84">
          <mxGeometry relative="1" as="geometry" />
        </mxCell>
        <mxCell id="dSnv0WfbyLthvF4rif75-97" value="HDMI -&amp;gt; VGA Converter" style="rounded=1;whiteSpace=wrap;html=1;" vertex="1" parent="1">
          <mxGeometry x="663.5" y="2132.48" width="120" height="60" as="geometry" />
        </mxCell>
        <mxCell id="dSnv0WfbyLthvF4rif75-98" style="edgeStyle=orthogonalEdgeStyle;rounded=0;orthogonalLoop=1;jettySize=auto;html=1;exitX=1;exitY=0.5;exitDx=0;exitDy=0;entryX=0.75;entryY=0;entryDx=0;entryDy=0;" edge="1" parent="1" source="dSnv0WfbyLthvF4rif75-99">
          <mxGeometry relative="1" as="geometry">
            <Array as="points">
              <mxPoint x="1345" y="2258" />
              <mxPoint x="1345" y="810" />
              <mxPoint x="660" y="810" />
            </Array>
            <mxPoint x="1280" y="2199.94" as="sourcePoint" />
            <mxPoint x="660" y="889.94" as="targetPoint" />
          </mxGeometry>
        </mxCell>
        <mxCell id="dSnv0WfbyLthvF4rif75-99" value="&lt;h3&gt;VC9900 Synth&amp;nbsp;&lt;br&gt;(VGA to HDMI)&lt;/h3&gt;" style="rounded=1;whiteSpace=wrap;html=1;" vertex="1" parent="1">
          <mxGeometry x="1183.02" y="2228.11" width="120" height="60" as="geometry" />
        </mxCell>
        <mxCell id="dSnv0WfbyLthvF4rif75-100" style="edgeStyle=orthogonalEdgeStyle;rounded=0;orthogonalLoop=1;jettySize=auto;html=1;exitX=0.5;exitY=1;exitDx=0;exitDy=0;entryX=0.25;entryY=0;entryDx=0;entryDy=0;" edge="1" parent="1" source="dSnv0WfbyLthvF4rif75-28" target="dSnv0WfbyLthvF4rif75-83">
          <mxGeometry relative="1" as="geometry">
            <mxPoint x="787.5" y="1666.2600000000002" as="targetPoint" />
            <Array as="points">
              <mxPoint x="790" y="1540" />
              <mxPoint x="473" y="1540" />
            </Array>
          </mxGeometry>
        </mxCell>
        <mxCell id="dSnv0WfbyLthvF4rif75-101" value="Modified frame" style="edgeLabel;html=1;align=center;verticalAlign=middle;resizable=0;points=[];" vertex="1" connectable="0" parent="dSnv0WfbyLthvF4rif75-100">
          <mxGeometry x="0.1606" y="3" relative="1" as="geometry">
            <mxPoint x="35" y="-3" as="offset" />
          </mxGeometry>
        </mxCell>
        <mxCell id="dSnv0WfbyLthvF4rif75-126" value="" style="edgeStyle=orthogonalEdgeStyle;rounded=0;orthogonalLoop=1;jettySize=auto;html=1;exitX=1;exitY=0.5;exitDx=0;exitDy=0;entryX=0;entryY=0.5;entryDx=0;entryDy=0;" edge="1" parent="1" source="acCK0oONIXdgHGkuolO0-84" target="acCK0oONIXdgHGkuolO0-75">
          <mxGeometry relative="1" as="geometry">
            <mxPoint x="784" y="2162" as="sourcePoint" />
            <mxPoint x="815" y="2162.48" as="targetPoint" />
            <Array as="points">
              <mxPoint x="784" y="2268" />
              <mxPoint x="784" y="2261" />
            </Array>
          </mxGeometry>
        </mxCell>
        <mxCell id="acCK0oONIXdgHGkuolO0-37" style="edgeStyle=orthogonalEdgeStyle;rounded=0;orthogonalLoop=1;jettySize=auto;html=1;entryX=1;entryY=0.5;entryDx=0;entryDy=0;" edge="1" parent="1" source="dSnv0WfbyLthvF4rif75-132" target="acCK0oONIXdgHGkuolO0-33">
          <mxGeometry relative="1" as="geometry" />
        </mxCell>
        <mxCell id="acCK0oONIXdgHGkuolO0-38" style="edgeStyle=orthogonalEdgeStyle;rounded=0;orthogonalLoop=1;jettySize=auto;html=1;exitX=0.871;exitY=0.5;exitDx=0;exitDy=0;entryX=0;entryY=0.5;entryDx=0;entryDy=0;exitPerimeter=0;" edge="1" parent="1" source="dSnv0WfbyLthvF4rif75-135" target="acCK0oONIXdgHGkuolO0-34">
          <mxGeometry relative="1" as="geometry" />
        </mxCell>
        <mxCell id="dSnv0WfbyLthvF4rif75-132" value="HDMI Output 1" style="rounded=1;whiteSpace=wrap;html=1;" vertex="1" parent="1">
          <mxGeometry x="330.5" y="1970" width="120" height="60" as="geometry" />
        </mxCell>
        <mxCell id="acCK0oONIXdgHGkuolO0-69" style="edgeStyle=orthogonalEdgeStyle;rounded=0;orthogonalLoop=1;jettySize=auto;html=1;exitX=0.5;exitY=1;exitDx=0;exitDy=0;entryX=0.5;entryY=0;entryDx=0;entryDy=0;" edge="1" parent="1" source="dSnv0WfbyLthvF4rif75-133" target="acCK0oONIXdgHGkuolO0-39">
          <mxGeometry relative="1" as="geometry" />
        </mxCell>
        <mxCell id="dSnv0WfbyLthvF4rif75-133" value="HDMI Output 2" style="rounded=1;whiteSpace=wrap;html=1;" vertex="1" parent="1">
          <mxGeometry x="498" y="1970" width="120" height="60" as="geometry" />
        </mxCell>
        <mxCell id="acCK0oONIXdgHGkuolO0-70" style="edgeStyle=orthogonalEdgeStyle;rounded=0;orthogonalLoop=1;jettySize=auto;html=1;exitX=0.5;exitY=1;exitDx=0;exitDy=0;entryX=0.5;entryY=0;entryDx=0;entryDy=0;" edge="1" parent="1" source="dSnv0WfbyLthvF4rif75-134" target="dSnv0WfbyLthvF4rif75-97">
          <mxGeometry relative="1" as="geometry" />
        </mxCell>
        <mxCell id="dSnv0WfbyLthvF4rif75-134" value="HDMI Output 3" style="rounded=1;whiteSpace=wrap;html=1;" vertex="1" parent="1">
          <mxGeometry x="665.5" y="1970" width="120" height="60" as="geometry" />
        </mxCell>
        <mxCell id="dSnv0WfbyLthvF4rif75-135" value="HDMI Output 4" style="rounded=1;whiteSpace=wrap;html=1;" vertex="1" parent="1">
          <mxGeometry x="825.5" y="1970" width="120" height="60" as="geometry" />
        </mxCell>
        <mxCell id="tsxarfvfpo1-gq6XZQbR-32" value="&lt;h1&gt;HDMI 1x4&lt;/h1&gt;" style="text;html=1;align=center;verticalAlign=middle;whiteSpace=wrap;rounded=0;fontSize=16;" vertex="1" parent="1">
          <mxGeometry x="485.5" y="1920" width="310" height="30" as="geometry" />
        </mxCell>
        <mxCell id="acCK0oONIXdgHGkuolO0-1" value="" style="rounded=0;whiteSpace=wrap;html=1;fillColor=#6a00ff;strokeColor=#3700CC;fillStyle=cross-hatch;fontColor=#ffffff;" vertex="1" parent="1">
          <mxGeometry x="-220" y="2095" width="850" height="345" as="geometry" />
        </mxCell>
        <mxCell id="acCK0oONIXdgHGkuolO0-2" style="edgeStyle=orthogonalEdgeStyle;rounded=0;orthogonalLoop=1;jettySize=auto;html=1;exitX=0.5;exitY=1;exitDx=0;exitDy=0;entryX=0.5;entryY=0;entryDx=0;entryDy=0;" edge="1" parent="1" target="acCK0oONIXdgHGkuolO0-10">
          <mxGeometry relative="1" as="geometry">
            <mxPoint x="95.00000000000091" y="2252.4800000000005" as="sourcePoint" />
          </mxGeometry>
        </mxCell>
        <mxCell id="acCK0oONIXdgHGkuolO0-3" value="" style="rounded=1;whiteSpace=wrap;html=1;" vertex="1" parent="1">
          <mxGeometry x="-50" y="2132.4800000000005" width="290" height="120" as="geometry" />
        </mxCell>
        <mxCell id="acCK0oONIXdgHGkuolO0-4" value="&lt;h3&gt;Composite Source A&lt;/h3&gt;" style="rounded=1;whiteSpace=wrap;html=1;" vertex="1" parent="1">
          <mxGeometry x="-30" y="2172.4800000000005" width="120" height="60" as="geometry" />
        </mxCell>
        <mxCell id="acCK0oONIXdgHGkuolO0-5" value="&lt;h3&gt;Composite Source A&lt;/h3&gt;" style="rounded=1;whiteSpace=wrap;html=1;" vertex="1" parent="1">
          <mxGeometry x="100" y="2172.4800000000005" width="120" height="60" as="geometry" />
        </mxCell>
        <mxCell id="acCK0oONIXdgHGkuolO0-6" style="edgeStyle=orthogonalEdgeStyle;rounded=0;orthogonalLoop=1;jettySize=auto;html=1;exitX=1;exitY=0.5;exitDx=0;exitDy=0;entryX=0;entryY=0.5;entryDx=0;entryDy=0;" edge="1" parent="1" source="acCK0oONIXdgHGkuolO0-80" target="acCK0oONIXdgHGkuolO0-4">
          <mxGeometry relative="1" as="geometry">
            <Array as="points">
              <mxPoint x="-80" y="2270" />
              <mxPoint x="-80" y="2202" />
              <mxPoint x="-57" y="2202" />
            </Array>
          </mxGeometry>
        </mxCell>
        <mxCell id="acCK0oONIXdgHGkuolO0-82" value="" style="edgeStyle=orthogonalEdgeStyle;rounded=0;orthogonalLoop=1;jettySize=auto;html=1;" edge="1" parent="1" source="acCK0oONIXdgHGkuolO0-7" target="acCK0oONIXdgHGkuolO0-80">
          <mxGeometry relative="1" as="geometry" />
        </mxCell>
        <mxCell id="acCK0oONIXdgHGkuolO0-7" value="&lt;h3&gt;RecurBOY&lt;/h3&gt;" style="rounded=1;whiteSpace=wrap;html=1;" vertex="1" parent="1">
          <mxGeometry x="-203.31" y="2130.0000000000005" width="120" height="60" as="geometry" />
        </mxCell>
        <mxCell id="acCK0oONIXdgHGkuolO0-8" value="&lt;h2&gt;Klompf Dirty Composite Mixer&lt;/h2&gt;" style="text;html=1;align=center;verticalAlign=middle;whiteSpace=wrap;rounded=0;" vertex="1" parent="1">
          <mxGeometry x="-50" y="2132.4800000000005" width="270" height="30" as="geometry" />
        </mxCell>
        <mxCell id="acCK0oONIXdgHGkuolO0-9" style="edgeStyle=orthogonalEdgeStyle;rounded=0;orthogonalLoop=1;jettySize=auto;html=1;exitX=0.5;exitY=1;exitDx=0;exitDy=0;entryX=0.5;entryY=0;entryDx=0;entryDy=0;" edge="1" parent="1" source="acCK0oONIXdgHGkuolO0-10" target="acCK0oONIXdgHGkuolO0-12">
          <mxGeometry relative="1" as="geometry" />
        </mxCell>
        <mxCell id="acCK0oONIXdgHGkuolO0-10" value="&lt;h3&gt;_RUPTURE_&lt;/h3&gt;" style="rounded=1;whiteSpace=wrap;html=1;" vertex="1" parent="1">
          <mxGeometry x="40" y="2282.4800000000005" width="120" height="60" as="geometry" />
        </mxCell>
        <mxCell id="acCK0oONIXdgHGkuolO0-11" style="edgeStyle=orthogonalEdgeStyle;rounded=0;orthogonalLoop=1;jettySize=auto;html=1;exitX=1;exitY=0.5;exitDx=0;exitDy=0;entryX=0;entryY=0.5;entryDx=0;entryDy=0;" edge="1" parent="1" source="acCK0oONIXdgHGkuolO0-12" target="acCK0oONIXdgHGkuolO0-18">
          <mxGeometry relative="1" as="geometry" />
        </mxCell>
        <mxCell id="acCK0oONIXdgHGkuolO0-12" value="&lt;h3&gt;Archer Enhancer&lt;/h3&gt;" style="rounded=1;whiteSpace=wrap;html=1;" vertex="1" parent="1">
          <mxGeometry x="40" y="2366.2200000000003" width="120" height="60" as="geometry" />
        </mxCell>
        <mxCell id="acCK0oONIXdgHGkuolO0-13" value="&lt;h3&gt;Syncope&lt;/h3&gt;" style="rounded=1;whiteSpace=wrap;html=1;" vertex="1" parent="1">
          <mxGeometry x="293.72" y="2200" width="120" height="206.22" as="geometry" />
        </mxCell>
        <mxCell id="acCK0oONIXdgHGkuolO0-14" value="IN" style="ellipse;whiteSpace=wrap;html=1;aspect=fixed;" vertex="1" parent="1">
          <mxGeometry x="393.72" y="2190" width="40" height="40" as="geometry" />
        </mxCell>
        <mxCell id="acCK0oONIXdgHGkuolO0-64" style="edgeStyle=orthogonalEdgeStyle;rounded=0;orthogonalLoop=1;jettySize=auto;html=1;exitX=0.5;exitY=1;exitDx=0;exitDy=0;entryX=0.25;entryY=0;entryDx=0;entryDy=0;" edge="1" parent="1" source="acCK0oONIXdgHGkuolO0-15" target="dSnv0WfbyLthvF4rif75-14">
          <mxGeometry relative="1" as="geometry">
            <Array as="points">
              <mxPoint x="414" y="2480" />
              <mxPoint x="-260" y="2480" />
              <mxPoint x="-260" y="800" />
              <mxPoint x="495" y="800" />
            </Array>
          </mxGeometry>
        </mxCell>
        <mxCell id="acCK0oONIXdgHGkuolO0-15" value="Out" style="ellipse;whiteSpace=wrap;html=1;aspect=fixed;" vertex="1" parent="1">
          <mxGeometry x="389.94000000000005" y="2372.44" width="47.56" height="47.56" as="geometry" />
        </mxCell>
        <mxCell id="acCK0oONIXdgHGkuolO0-16" style="edgeStyle=orthogonalEdgeStyle;rounded=0;orthogonalLoop=1;jettySize=auto;html=1;exitX=0.5;exitY=0;exitDx=0;exitDy=0;" edge="1" parent="1" source="acCK0oONIXdgHGkuolO0-17">
          <mxGeometry relative="1" as="geometry">
            <mxPoint x="220" y="2210" as="targetPoint" />
            <Array as="points">
              <mxPoint x="294" y="2210" />
              <mxPoint x="220" y="2210" />
            </Array>
          </mxGeometry>
        </mxCell>
        <mxCell id="acCK0oONIXdgHGkuolO0-17" value="Send" style="ellipse;whiteSpace=wrap;html=1;aspect=fixed;" vertex="1" parent="1">
          <mxGeometry x="273.72" y="2190" width="40" height="40" as="geometry" />
        </mxCell>
        <mxCell id="acCK0oONIXdgHGkuolO0-18" value="Return" style="ellipse;whiteSpace=wrap;html=1;aspect=fixed;" vertex="1" parent="1">
          <mxGeometry x="269.94" y="2372.44" width="47.56" height="47.56" as="geometry" />
        </mxCell>
        <mxCell id="acCK0oONIXdgHGkuolO0-61" value="" style="edgeStyle=orthogonalEdgeStyle;rounded=0;orthogonalLoop=1;jettySize=auto;html=1;" edge="1" parent="1" source="acCK0oONIXdgHGkuolO0-20" target="acCK0oONIXdgHGkuolO0-60">
          <mxGeometry relative="1" as="geometry" />
        </mxCell>
        <mxCell id="acCK0oONIXdgHGkuolO0-20" value="&lt;h3&gt;CCTV Camera&lt;/h3&gt;" style="rounded=1;whiteSpace=wrap;html=1;" vertex="1" parent="1">
          <mxGeometry x="498" y="2347.4800000000005" width="120" height="60" as="geometry" />
        </mxCell>
        <mxCell id="acCK0oONIXdgHGkuolO0-33" value="&lt;h1&gt;HDMI Display 1&lt;/h1&gt;" style="rounded=1;whiteSpace=wrap;html=1;" vertex="1" parent="1">
          <mxGeometry x="25.5" y="1910" width="225" height="140" as="geometry" />
        </mxCell>
        <mxCell id="acCK0oONIXdgHGkuolO0-34" value="&lt;h1&gt;HDMI Display 2&lt;/h1&gt;" style="rounded=1;whiteSpace=wrap;html=1;" vertex="1" parent="1">
          <mxGeometry x="1019.5" y="1910" width="225" height="140" as="geometry" />
        </mxCell>
        <mxCell id="acCK0oONIXdgHGkuolO0-35" value="&lt;h1&gt;Unmixed&amp;nbsp;&lt;/h1&gt;&lt;h1&gt;HDMI Display&lt;/h1&gt;" style="rounded=1;whiteSpace=wrap;html=1;" vertex="1" parent="1">
          <mxGeometry x="542.5" y="650" width="225" height="140" as="geometry" />
        </mxCell>
        <mxCell id="acCK0oONIXdgHGkuolO0-62" value="" style="edgeStyle=orthogonalEdgeStyle;rounded=0;orthogonalLoop=1;jettySize=auto;html=1;" edge="1" parent="1" source="acCK0oONIXdgHGkuolO0-39" target="acCK0oONIXdgHGkuolO0-60">
          <mxGeometry relative="1" as="geometry" />
        </mxCell>
        <mxCell id="acCK0oONIXdgHGkuolO0-39" value="HDMI -&amp;gt; Composite Converter" style="rounded=1;whiteSpace=wrap;html=1;" vertex="1" parent="1">
          <mxGeometry x="498" y="2132.48" width="120" height="60" as="geometry" />
        </mxCell>
        <mxCell id="acCK0oONIXdgHGkuolO0-49" value="SMC Mixer" style="rounded=1;whiteSpace=wrap;html=1;" vertex="1" parent="1">
          <mxGeometry x="-215" y="1240" width="143.3734939759036" height="201.27659574468086" as="geometry" />
        </mxCell>
        <mxCell id="acCK0oONIXdgHGkuolO0-50" value="Akai MIDIMIX" style="rounded=1;whiteSpace=wrap;html=1;" vertex="1" parent="1">
          <mxGeometry x="-215" y="1468.723404255319" width="143.3734939759036" height="201.27659574468086" as="geometry" />
        </mxCell>
        <mxCell id="dSnv0WfbyLthvF4rif75-56" value="Interface to Video Synth" style="rounded=1;whiteSpace=wrap;html=1;" vertex="1" parent="1">
          <mxGeometry x="111.62650602409641" y="1240" width="143.3734939759036" height="201.27659574468086" as="geometry" />
        </mxCell>
        <mxCell id="dSnv0WfbyLthvF4rif75-57" value="Interface to RecurBOY" style="rounded=1;whiteSpace=wrap;html=1;" vertex="1" parent="1">
          <mxGeometry x="111.62650602409641" y="1468.723404255319" width="143.3734939759036" height="201.27659574468086" as="geometry" />
        </mxCell>
        <mxCell id="acCK0oONIXdgHGkuolO0-56" value="" style="edgeStyle=orthogonalEdgeStyle;rounded=0;orthogonalLoop=1;jettySize=auto;html=1;" edge="1" parent="1" source="acCK0oONIXdgHGkuolO0-41" target="dSnv0WfbyLthvF4rif75-57">
          <mxGeometry relative="1" as="geometry">
            <Array as="points">
              <mxPoint x="95" y="1569" />
              <mxPoint x="95" y="1569" />
            </Array>
          </mxGeometry>
        </mxCell>
        <mxCell id="acCK0oONIXdgHGkuolO0-41" value="MidiController&lt;div&gt;Interface&lt;/div&gt;" style="rounded=1;whiteSpace=wrap;html=1;" vertex="1" parent="1">
          <mxGeometry x="-5" y="1240" width="93.37" height="430" as="geometry" />
        </mxCell>
        <mxCell id="acCK0oONIXdgHGkuolO0-53" style="edgeStyle=orthogonalEdgeStyle;rounded=0;orthogonalLoop=1;jettySize=auto;html=1;exitX=1;exitY=0.5;exitDx=0;exitDy=0;" edge="1" parent="1" source="acCK0oONIXdgHGkuolO0-49">
          <mxGeometry relative="1" as="geometry">
            <mxPoint x="-5" y="1340" as="targetPoint" />
            <Array as="points">
              <mxPoint x="-2" y="1341" />
            </Array>
          </mxGeometry>
        </mxCell>
        <mxCell id="acCK0oONIXdgHGkuolO0-54" style="edgeStyle=orthogonalEdgeStyle;rounded=0;orthogonalLoop=1;jettySize=auto;html=1;exitX=1;exitY=0.5;exitDx=0;exitDy=0;" edge="1" parent="1" source="acCK0oONIXdgHGkuolO0-50">
          <mxGeometry relative="1" as="geometry">
            <mxPoint x="-5" y="1572" as="targetPoint" />
            <Array as="points">
              <mxPoint x="-72" y="1572" />
              <mxPoint x="-38" y="1572" />
            </Array>
          </mxGeometry>
        </mxCell>
        <mxCell id="acCK0oONIXdgHGkuolO0-55" style="edgeStyle=orthogonalEdgeStyle;rounded=0;orthogonalLoop=1;jettySize=auto;html=1;entryX=0.027;entryY=0.45;entryDx=0;entryDy=0;entryPerimeter=0;exitX=1.002;exitY=0.21;exitDx=0;exitDy=0;exitPerimeter=0;" edge="1" parent="1" source="acCK0oONIXdgHGkuolO0-41" target="dSnv0WfbyLthvF4rif75-56">
          <mxGeometry relative="1" as="geometry" />
        </mxCell>
        <mxCell id="acCK0oONIXdgHGkuolO0-63" style="edgeStyle=orthogonalEdgeStyle;rounded=0;orthogonalLoop=1;jettySize=auto;html=1;exitX=0;exitY=0.5;exitDx=0;exitDy=0;entryX=1;entryY=0.5;entryDx=0;entryDy=0;" edge="1" parent="1" source="acCK0oONIXdgHGkuolO0-60" target="acCK0oONIXdgHGkuolO0-14">
          <mxGeometry relative="1" as="geometry" />
        </mxCell>
        <mxCell id="acCK0oONIXdgHGkuolO0-60" value="2x1 Composite Switch" style="ellipse;whiteSpace=wrap;html=1;aspect=fixed;" vertex="1" parent="1">
          <mxGeometry x="520" y="2227.48" width="80" height="80" as="geometry" />
        </mxCell>
        <mxCell id="acCK0oONIXdgHGkuolO0-65" value="&lt;h2&gt;&lt;div&gt;&lt;span style=&quot;font-weight: 400;&quot;&gt;&lt;br&gt;&lt;/span&gt;&lt;/div&gt;&lt;ul&gt;&lt;li style=&quot;&quot;&gt;&lt;span style=&quot;font-weight: normal;&quot;&gt;Trackbars and buttons for each parameter&lt;/span&gt;&lt;/li&gt;&lt;li style=&quot;&quot;&gt;&lt;span style=&quot;font-weight: normal;&quot;&gt;All Params can be modified by Oscillators&lt;/span&gt;&lt;/li&gt;&lt;li style=&quot;&quot;&gt;&lt;span style=&quot;font-weight: normal;&quot;&gt;Patches can be saved and recalled&lt;/span&gt;&lt;/li&gt;&lt;/ul&gt;&lt;/h2&gt;" style="rounded=1;whiteSpace=wrap;html=1;align=left;" vertex="1" parent="1">
          <mxGeometry x="-20" y="870" width="330" height="200" as="geometry" />
        </mxCell>
        <mxCell id="acCK0oONIXdgHGkuolO0-68" value="&lt;h1&gt;GUI&lt;/h1&gt;" style="text;html=1;align=center;verticalAlign=middle;whiteSpace=wrap;rounded=0;fontSize=16;" vertex="1" parent="1">
          <mxGeometry x="75" y="870" width="100" height="50" as="geometry" />
        </mxCell>
        <mxCell id="acCK0oONIXdgHGkuolO0-72" value="" style="edgeStyle=orthogonalEdgeStyle;rounded=0;orthogonalLoop=1;jettySize=auto;html=1;exitX=1;exitY=0.5;exitDx=0;exitDy=0;entryX=0;entryY=0.5;entryDx=0;entryDy=0;" edge="1" parent="1" source="dSnv0WfbyLthvF4rif75-2" target="acCK0oONIXdgHGkuolO0-71">
          <mxGeometry relative="1" as="geometry">
            <mxPoint x="1092.02" y="2263.11" as="sourcePoint" />
            <mxPoint x="1183.02" y="2258.11" as="targetPoint" />
          </mxGeometry>
        </mxCell>
        <mxCell id="acCK0oONIXdgHGkuolO0-71" value="Option B" style="ellipse;whiteSpace=wrap;html=1;aspect=fixed;" vertex="1" parent="1">
          <mxGeometry x="1085.5" y="2223.07" width="75.04" height="75.04" as="geometry" />
        </mxCell>
        <mxCell id="acCK0oONIXdgHGkuolO0-76" style="edgeStyle=orthogonalEdgeStyle;rounded=0;orthogonalLoop=1;jettySize=auto;html=1;exitX=0;exitY=0.5;exitDx=0;exitDy=0;dashed=1;" edge="1" parent="1" source="acCK0oONIXdgHGkuolO0-73" target="acCK0oONIXdgHGkuolO0-75">
          <mxGeometry relative="1" as="geometry" />
        </mxCell>
        <mxCell id="acCK0oONIXdgHGkuolO0-77" style="edgeStyle=orthogonalEdgeStyle;rounded=0;orthogonalLoop=1;jettySize=auto;html=1;exitX=1;exitY=0.5;exitDx=0;exitDy=0;entryX=0.5;entryY=1;entryDx=0;entryDy=0;dashed=1;" edge="1" parent="1" source="acCK0oONIXdgHGkuolO0-73" target="acCK0oONIXdgHGkuolO0-71">
          <mxGeometry relative="1" as="geometry" />
        </mxCell>
        <mxCell id="acCK0oONIXdgHGkuolO0-73" value="&lt;h3&gt;PixelSlasher&lt;/h3&gt;" style="rounded=1;whiteSpace=wrap;html=1;" vertex="1" parent="1">
          <mxGeometry x="933.02" y="2346.2200000000003" width="120" height="60" as="geometry" />
        </mxCell>
        <mxCell id="acCK0oONIXdgHGkuolO0-79" style="edgeStyle=orthogonalEdgeStyle;rounded=0;orthogonalLoop=1;jettySize=auto;html=1;exitX=1;exitY=0.5;exitDx=0;exitDy=0;" edge="1" parent="1" source="acCK0oONIXdgHGkuolO0-75">
          <mxGeometry relative="1" as="geometry">
            <mxPoint x="933.02" y="2260.4433333333336" as="targetPoint" />
          </mxGeometry>
        </mxCell>
        <mxCell id="acCK0oONIXdgHGkuolO0-75" value="Option A" style="ellipse;whiteSpace=wrap;html=1;aspect=fixed;" vertex="1" parent="1">
          <mxGeometry x="825.5" y="2223.07" width="75.04" height="75.04" as="geometry" />
        </mxCell>
        <mxCell id="acCK0oONIXdgHGkuolO0-80" value="2x1 Composite Switch" style="ellipse;whiteSpace=wrap;html=1;aspect=fixed;" vertex="1" parent="1">
          <mxGeometry x="-183.31" y="2230" width="80" height="80" as="geometry" />
        </mxCell>
        <mxCell id="acCK0oONIXdgHGkuolO0-83" value="" style="edgeStyle=orthogonalEdgeStyle;rounded=0;orthogonalLoop=1;jettySize=auto;html=1;" edge="1" parent="1" source="acCK0oONIXdgHGkuolO0-81" target="acCK0oONIXdgHGkuolO0-80">
          <mxGeometry relative="1" as="geometry" />
        </mxCell>
        <mxCell id="acCK0oONIXdgHGkuolO0-81" value="&lt;h3&gt;AUX input&lt;/h3&gt;" style="rounded=1;whiteSpace=wrap;html=1;" vertex="1" parent="1">
          <mxGeometry x="-203.31" y="2347.48" width="120" height="60" as="geometry" />
        </mxCell>
        <mxCell id="acCK0oONIXdgHGkuolO0-84" value="2x1 VGA Switch" style="ellipse;whiteSpace=wrap;html=1;aspect=fixed;" vertex="1" parent="1">
          <mxGeometry x="683.5" y="2227.48" width="80" height="80" as="geometry" />
        </mxCell>
        <mxCell id="acCK0oONIXdgHGkuolO0-86" value="" style="edgeStyle=orthogonalEdgeStyle;rounded=0;orthogonalLoop=1;jettySize=auto;html=1;" edge="1" parent="1" source="acCK0oONIXdgHGkuolO0-85" target="acCK0oONIXdgHGkuolO0-84">
          <mxGeometry relative="1" as="geometry" />
        </mxCell>
        <mxCell id="acCK0oONIXdgHGkuolO0-85" value="&lt;h3&gt;CHA/V&lt;/h3&gt;" style="rounded=1;whiteSpace=wrap;html=1;" vertex="1" parent="1">
          <mxGeometry x="665.5" y="2347.48" width="120" height="60" as="geometry" />
        </mxCell>
        <mxCell id="dSnv0WfbyLthvF4rif75-2" value="&lt;h3&gt;&lt;br&gt;&lt;/h3&gt;&lt;h3&gt;&lt;br&gt;&lt;/h3&gt;&lt;h3&gt;GBS Synth&lt;/h3&gt;" style="rounded=1;whiteSpace=wrap;html=1;" vertex="1" parent="1">
          <mxGeometry x="933.02" y="2206.8500000000004" width="120" height="112.52" as="geometry" />
        </mxCell>
        <mxCell id="dSnv0WfbyLthvF4rif75-103" value="Internal feedback switch" style="ellipse;whiteSpace=wrap;html=1;aspect=fixed;" vertex="1" parent="1">
          <mxGeometry x="969.02" y="2229.3300000000004" width="40" height="40" as="geometry" />
        </mxCell>
      </root>
    </mxGraphModel>
  </diagram>
  <diagram id="2krD5RjTtfJMba3GY61v" name="Page-3">
    <mxGraphModel dx="786" dy="497" grid="1" gridSize="10" guides="1" tooltips="1" connect="1" arrows="1" fold="1" page="1" pageScale="1" pageWidth="850" pageHeight="1100" math="0" shadow="0">
      <root>
        <mxCell id="0" />
        <mxCell id="1" parent="0" />
        <mxCell id="rVYP4_xKBBUVtlq0-gE4-1" value="" style="rounded=0;whiteSpace=wrap;html=1;fillColor=#60a917;strokeColor=#2D7600;fillStyle=cross-hatch;fontColor=#ffffff;" vertex="1" parent="1">
          <mxGeometry x="422" y="1890" width="948" height="140" as="geometry" />
        </mxCell>
        <mxCell id="rVYP4_xKBBUVtlq0-gE4-2" value="&lt;h3&gt;&lt;br&gt;&lt;/h3&gt;&lt;h3&gt;&lt;br&gt;&lt;/h3&gt;&lt;h3&gt;GBS Synth&lt;/h3&gt;" style="rounded=1;whiteSpace=wrap;html=1;" vertex="1" parent="1">
          <mxGeometry x="990" y="1901.22" width="180" height="112.52" as="geometry" />
        </mxCell>
        <mxCell id="rVYP4_xKBBUVtlq0-gE4-3" value="" style="rounded=0;whiteSpace=wrap;html=1;fillColor=#e51400;fontColor=#ffffff;strokeColor=#B20000;fillStyle=cross-hatch;" vertex="1" parent="1">
          <mxGeometry x="130" y="810" width="1240" height="1020" as="geometry" />
        </mxCell>
        <mxCell id="rVYP4_xKBBUVtlq0-gE4-4" value="&lt;h1&gt;&lt;br&gt;&lt;/h1&gt;" style="rounded=1;whiteSpace=wrap;html=1;" vertex="1" parent="1">
          <mxGeometry x="395" y="820" width="930" height="90" as="geometry" />
        </mxCell>
        <mxCell id="rVYP4_xKBBUVtlq0-gE4-5" style="edgeStyle=orthogonalEdgeStyle;rounded=0;orthogonalLoop=1;jettySize=auto;html=1;exitX=0.5;exitY=1;exitDx=0;exitDy=0;entryX=0.5;entryY=0;entryDx=0;entryDy=0;curved=1;" edge="1" parent="1" source="rVYP4_xKBBUVtlq0-gE4-7" target="rVYP4_xKBBUVtlq0-gE4-72">
          <mxGeometry relative="1" as="geometry" />
        </mxCell>
        <mxCell id="rVYP4_xKBBUVtlq0-gE4-6" style="edgeStyle=orthogonalEdgeStyle;rounded=0;orthogonalLoop=1;jettySize=auto;html=1;exitX=0.5;exitY=1;exitDx=0;exitDy=0;entryX=0.5;entryY=0;entryDx=0;entryDy=0;curved=1;" edge="1" parent="1" source="rVYP4_xKBBUVtlq0-gE4-7" target="rVYP4_xKBBUVtlq0-gE4-74">
          <mxGeometry relative="1" as="geometry" />
        </mxCell>
        <mxCell id="rVYP4_xKBBUVtlq0-gE4-7" value="Webcam" style="rounded=1;whiteSpace=wrap;html=1;" vertex="1" parent="1">
          <mxGeometry x="405" y="870" width="120" height="20" as="geometry" />
        </mxCell>
        <mxCell id="rVYP4_xKBBUVtlq0-gE4-8" style="edgeStyle=orthogonalEdgeStyle;rounded=0;orthogonalLoop=1;jettySize=auto;html=1;exitX=0.5;exitY=1;exitDx=0;exitDy=0;curved=1;entryX=0.5;entryY=0;entryDx=0;entryDy=0;" edge="1" parent="1" source="rVYP4_xKBBUVtlq0-gE4-11" target="rVYP4_xKBBUVtlq0-gE4-72">
          <mxGeometry relative="1" as="geometry">
            <mxPoint x="670" y="1100" as="targetPoint" />
          </mxGeometry>
        </mxCell>
        <mxCell id="rVYP4_xKBBUVtlq0-gE4-9" style="edgeStyle=orthogonalEdgeStyle;rounded=0;orthogonalLoop=1;jettySize=auto;html=1;exitX=0.5;exitY=1;exitDx=0;exitDy=0;curved=1;entryX=0.5;entryY=0;entryDx=0;entryDy=0;" edge="1" parent="1" source="rVYP4_xKBBUVtlq0-gE4-11" target="rVYP4_xKBBUVtlq0-gE4-74">
          <mxGeometry relative="1" as="geometry">
            <mxPoint x="1050" y="1100" as="targetPoint" />
          </mxGeometry>
        </mxCell>
        <mxCell id="rVYP4_xKBBUVtlq0-gE4-10" style="edgeStyle=orthogonalEdgeStyle;rounded=0;orthogonalLoop=1;jettySize=auto;html=1;exitX=0.5;exitY=0;exitDx=0;exitDy=0;entryX=0.15;entryY=0.993;entryDx=0;entryDy=0;entryPerimeter=0;" edge="1" parent="1" source="rVYP4_xKBBUVtlq0-gE4-11" target="rVYP4_xKBBUVtlq0-gE4-125">
          <mxGeometry relative="1" as="geometry">
            <mxPoint x="1040" y="590" as="targetPoint" />
            <Array as="points">
              <mxPoint x="725" y="770" />
              <mxPoint x="1040" y="770" />
              <mxPoint x="1040" y="674" />
            </Array>
          </mxGeometry>
        </mxCell>
        <mxCell id="rVYP4_xKBBUVtlq0-gE4-11" value="HDMI USB Capture with pass thru" style="rounded=1;whiteSpace=wrap;html=1;" vertex="1" parent="1">
          <mxGeometry x="665" y="840" width="120" height="50" as="geometry" />
        </mxCell>
        <mxCell id="rVYP4_xKBBUVtlq0-gE4-12" style="edgeStyle=orthogonalEdgeStyle;rounded=0;orthogonalLoop=1;jettySize=auto;html=1;exitX=0.5;exitY=1;exitDx=0;exitDy=0;entryX=0.5;entryY=0;entryDx=0;entryDy=0;curved=1;" edge="1" parent="1" source="rVYP4_xKBBUVtlq0-gE4-14" target="rVYP4_xKBBUVtlq0-gE4-72">
          <mxGeometry relative="1" as="geometry" />
        </mxCell>
        <mxCell id="rVYP4_xKBBUVtlq0-gE4-13" style="edgeStyle=orthogonalEdgeStyle;rounded=0;orthogonalLoop=1;jettySize=auto;html=1;exitX=0.5;exitY=1;exitDx=0;exitDy=0;entryX=0.5;entryY=0;entryDx=0;entryDy=0;curved=1;" edge="1" parent="1" source="rVYP4_xKBBUVtlq0-gE4-14" target="rVYP4_xKBBUVtlq0-gE4-74">
          <mxGeometry relative="1" as="geometry" />
        </mxCell>
        <mxCell id="rVYP4_xKBBUVtlq0-gE4-14" value="Composite USB Cap." style="rounded=1;whiteSpace=wrap;html=1;" vertex="1" parent="1">
          <mxGeometry x="535" y="870" width="120" height="20" as="geometry" />
        </mxCell>
        <mxCell id="rVYP4_xKBBUVtlq0-gE4-15" style="edgeStyle=orthogonalEdgeStyle;rounded=0;orthogonalLoop=1;jettySize=auto;html=1;exitX=0.5;exitY=1;exitDx=0;exitDy=0;curved=1;entryX=0.5;entryY=0;entryDx=0;entryDy=0;" edge="1" parent="1" source="rVYP4_xKBBUVtlq0-gE4-17" target="rVYP4_xKBBUVtlq0-gE4-72">
          <mxGeometry relative="1" as="geometry">
            <mxPoint x="670" y="1100" as="targetPoint" />
          </mxGeometry>
        </mxCell>
        <mxCell id="rVYP4_xKBBUVtlq0-gE4-16" style="edgeStyle=orthogonalEdgeStyle;rounded=0;orthogonalLoop=1;jettySize=auto;html=1;exitX=0.5;exitY=1;exitDx=0;exitDy=0;entryX=0.5;entryY=0;entryDx=0;entryDy=0;curved=1;" edge="1" parent="1" source="rVYP4_xKBBUVtlq0-gE4-17" target="rVYP4_xKBBUVtlq0-gE4-74">
          <mxGeometry relative="1" as="geometry" />
        </mxCell>
        <mxCell id="rVYP4_xKBBUVtlq0-gE4-17" value="Metaballs" style="rounded=1;whiteSpace=wrap;html=1;" vertex="1" parent="1">
          <mxGeometry x="795" y="870" width="120" height="20" as="geometry" />
        </mxCell>
        <mxCell id="rVYP4_xKBBUVtlq0-gE4-18" style="edgeStyle=orthogonalEdgeStyle;rounded=0;orthogonalLoop=1;jettySize=auto;html=1;exitX=0.5;exitY=1;exitDx=0;exitDy=0;entryX=0.5;entryY=0;entryDx=0;entryDy=0;curved=1;" edge="1" parent="1" source="rVYP4_xKBBUVtlq0-gE4-20" target="rVYP4_xKBBUVtlq0-gE4-72">
          <mxGeometry relative="1" as="geometry">
            <mxPoint x="670" y="1110" as="targetPoint" />
          </mxGeometry>
        </mxCell>
        <mxCell id="rVYP4_xKBBUVtlq0-gE4-19" style="edgeStyle=orthogonalEdgeStyle;rounded=0;orthogonalLoop=1;jettySize=auto;html=1;exitX=0.5;exitY=1;exitDx=0;exitDy=0;entryX=0.5;entryY=0;entryDx=0;entryDy=0;curved=1;" edge="1" parent="1" source="rVYP4_xKBBUVtlq0-gE4-20" target="rVYP4_xKBBUVtlq0-gE4-74">
          <mxGeometry relative="1" as="geometry" />
        </mxCell>
        <mxCell id="rVYP4_xKBBUVtlq0-gE4-20" value="Plasma" style="rounded=1;whiteSpace=wrap;html=1;" vertex="1" parent="1">
          <mxGeometry x="925" y="870" width="120" height="20" as="geometry" />
        </mxCell>
        <mxCell id="rVYP4_xKBBUVtlq0-gE4-21" style="edgeStyle=orthogonalEdgeStyle;rounded=0;orthogonalLoop=1;jettySize=auto;html=1;exitX=0.5;exitY=1;exitDx=0;exitDy=0;entryX=0.5;entryY=0;entryDx=0;entryDy=0;curved=1;" edge="1" parent="1" source="rVYP4_xKBBUVtlq0-gE4-23" target="rVYP4_xKBBUVtlq0-gE4-72">
          <mxGeometry relative="1" as="geometry" />
        </mxCell>
        <mxCell id="rVYP4_xKBBUVtlq0-gE4-22" style="edgeStyle=orthogonalEdgeStyle;rounded=0;orthogonalLoop=1;jettySize=auto;html=1;exitX=0.5;exitY=1;exitDx=0;exitDy=0;curved=1;" edge="1" parent="1" source="rVYP4_xKBBUVtlq0-gE4-23" target="rVYP4_xKBBUVtlq0-gE4-74">
          <mxGeometry relative="1" as="geometry" />
        </mxCell>
        <mxCell id="rVYP4_xKBBUVtlq0-gE4-23" value="Reaction Diffusion" style="rounded=1;whiteSpace=wrap;html=1;" vertex="1" parent="1">
          <mxGeometry x="1055" y="870" width="120" height="20" as="geometry" />
        </mxCell>
        <mxCell id="rVYP4_xKBBUVtlq0-gE4-24" style="edgeStyle=orthogonalEdgeStyle;rounded=0;orthogonalLoop=1;jettySize=auto;html=1;exitX=0.5;exitY=1;exitDx=0;exitDy=0;curved=1;entryX=0.5;entryY=0;entryDx=0;entryDy=0;" edge="1" parent="1" source="rVYP4_xKBBUVtlq0-gE4-26" target="rVYP4_xKBBUVtlq0-gE4-72">
          <mxGeometry relative="1" as="geometry">
            <mxPoint x="670" y="1100" as="targetPoint" />
          </mxGeometry>
        </mxCell>
        <mxCell id="rVYP4_xKBBUVtlq0-gE4-25" style="edgeStyle=orthogonalEdgeStyle;rounded=0;orthogonalLoop=1;jettySize=auto;html=1;exitX=0.5;exitY=1;exitDx=0;exitDy=0;entryX=0.5;entryY=0;entryDx=0;entryDy=0;curved=1;" edge="1" parent="1" source="rVYP4_xKBBUVtlq0-gE4-26" target="rVYP4_xKBBUVtlq0-gE4-74">
          <mxGeometry relative="1" as="geometry" />
        </mxCell>
        <mxCell id="rVYP4_xKBBUVtlq0-gE4-26" value="Moire" style="rounded=1;whiteSpace=wrap;html=1;" vertex="1" parent="1">
          <mxGeometry x="1185" y="870" width="120" height="20" as="geometry" />
        </mxCell>
        <mxCell id="rVYP4_xKBBUVtlq0-gE4-27" value="&lt;h1&gt;Sources&lt;/h1&gt;" style="text;html=1;align=center;verticalAlign=middle;whiteSpace=wrap;rounded=0;fontSize=16;" vertex="1" parent="1">
          <mxGeometry x="805" y="830" width="100" height="30" as="geometry" />
        </mxCell>
        <mxCell id="rVYP4_xKBBUVtlq0-gE4-28" value="&lt;h1&gt;&lt;br&gt;&lt;/h1&gt;" style="rounded=1;whiteSpace=wrap;html=1;" vertex="1" parent="1">
          <mxGeometry x="395" y="1330" width="930" height="120" as="geometry" />
        </mxCell>
        <mxCell id="rVYP4_xKBBUVtlq0-gE4-29" value="HSV" style="rounded=1;whiteSpace=wrap;html=1;" vertex="1" parent="1">
          <mxGeometry x="405" y="1380" width="120" height="20" as="geometry" />
        </mxCell>
        <mxCell id="rVYP4_xKBBUVtlq0-gE4-30" value="Contrast&amp;amp;Brightness" style="rounded=1;whiteSpace=wrap;html=1;" vertex="1" parent="1">
          <mxGeometry x="535" y="1380" width="120" height="20" as="geometry" />
        </mxCell>
        <mxCell id="rVYP4_xKBBUVtlq0-gE4-31" value="Sharpness" style="rounded=1;whiteSpace=wrap;html=1;" vertex="1" parent="1">
          <mxGeometry x="665" y="1380" width="120" height="20" as="geometry" />
        </mxCell>
        <mxCell id="rVYP4_xKBBUVtlq0-gE4-32" value="Blur" style="rounded=1;whiteSpace=wrap;html=1;" vertex="1" parent="1">
          <mxGeometry x="795" y="1380" width="120" height="20" as="geometry" />
        </mxCell>
        <mxCell id="rVYP4_xKBBUVtlq0-gE4-33" value="Sync Emulation" style="rounded=1;whiteSpace=wrap;html=1;" vertex="1" parent="1">
          <mxGeometry x="925" y="1380" width="120" height="20" as="geometry" />
        </mxCell>
        <mxCell id="rVYP4_xKBBUVtlq0-gE4-34" value="PTZ" style="rounded=1;whiteSpace=wrap;html=1;" vertex="1" parent="1">
          <mxGeometry x="1055" y="1380" width="120" height="20" as="geometry" />
        </mxCell>
        <mxCell id="rVYP4_xKBBUVtlq0-gE4-35" value="Reflection" style="rounded=1;whiteSpace=wrap;html=1;" vertex="1" parent="1">
          <mxGeometry x="1185" y="1380" width="120" height="20" as="geometry" />
        </mxCell>
        <mxCell id="rVYP4_xKBBUVtlq0-gE4-36" value="&lt;h1&gt;Effects&lt;/h1&gt;" style="text;html=1;align=center;verticalAlign=middle;whiteSpace=wrap;rounded=0;fontSize=16;" vertex="1" parent="1">
          <mxGeometry x="810" y="1340" width="100" height="30" as="geometry" />
        </mxCell>
        <mxCell id="rVYP4_xKBBUVtlq0-gE4-37" value="Noise" style="rounded=1;whiteSpace=wrap;html=1;" vertex="1" parent="1">
          <mxGeometry x="405" y="1410" width="120" height="20" as="geometry" />
        </mxCell>
        <mxCell id="rVYP4_xKBBUVtlq0-gE4-38" value="Glitch" style="rounded=1;whiteSpace=wrap;html=1;" vertex="1" parent="1">
          <mxGeometry x="535" y="1410" width="120" height="20" as="geometry" />
        </mxCell>
        <mxCell id="rVYP4_xKBBUVtlq0-gE4-39" value="Warp" style="rounded=1;whiteSpace=wrap;html=1;" vertex="1" parent="1">
          <mxGeometry x="665" y="1410" width="120" height="20" as="geometry" />
        </mxCell>
        <mxCell id="rVYP4_xKBBUVtlq0-gE4-40" value="Patterns" style="rounded=1;whiteSpace=wrap;html=1;" vertex="1" parent="1">
          <mxGeometry x="795" y="1410" width="120" height="20" as="geometry" />
        </mxCell>
        <mxCell id="rVYP4_xKBBUVtlq0-gE4-41" value="Shapes" style="rounded=1;whiteSpace=wrap;html=1;" vertex="1" parent="1">
          <mxGeometry x="925" y="1410" width="120" height="20" as="geometry" />
        </mxCell>
        <mxCell id="rVYP4_xKBBUVtlq0-gE4-42" value="" style="rounded=1;whiteSpace=wrap;html=1;" vertex="1" parent="1">
          <mxGeometry x="1055" y="1410" width="120" height="20" as="geometry" />
        </mxCell>
        <mxCell id="rVYP4_xKBBUVtlq0-gE4-43" value="" style="rounded=1;whiteSpace=wrap;html=1;" vertex="1" parent="1">
          <mxGeometry x="1185" y="1410" width="120" height="20" as="geometry" />
        </mxCell>
        <mxCell id="rVYP4_xKBBUVtlq0-gE4-44" style="edgeStyle=orthogonalEdgeStyle;rounded=0;orthogonalLoop=1;jettySize=auto;html=1;exitX=0.5;exitY=1;exitDx=0;exitDy=0;entryX=0.5;entryY=0;entryDx=0;entryDy=0;" edge="1" parent="1" source="rVYP4_xKBBUVtlq0-gE4-69" target="rVYP4_xKBBUVtlq0-gE4-28">
          <mxGeometry relative="1" as="geometry">
            <mxPoint x="840" y="1310" as="targetPoint" />
          </mxGeometry>
        </mxCell>
        <mxCell id="rVYP4_xKBBUVtlq0-gE4-45" value="Mixed, Raw frame" style="edgeLabel;html=1;align=center;verticalAlign=middle;resizable=0;points=[];" vertex="1" connectable="0" parent="rVYP4_xKBBUVtlq0-gE4-44">
          <mxGeometry x="-0.1361" y="1" relative="1" as="geometry">
            <mxPoint as="offset" />
          </mxGeometry>
        </mxCell>
        <mxCell id="rVYP4_xKBBUVtlq0-gE4-46" style="edgeStyle=orthogonalEdgeStyle;rounded=0;orthogonalLoop=1;jettySize=auto;html=1;exitX=1;exitY=0.812;exitDx=0;exitDy=0;entryX=0;entryY=0.5;entryDx=0;entryDy=0;exitPerimeter=0;" edge="1" parent="1" source="rVYP4_xKBBUVtlq0-gE4-54" target="rVYP4_xKBBUVtlq0-gE4-28">
          <mxGeometry relative="1" as="geometry" />
        </mxCell>
        <mxCell id="rVYP4_xKBBUVtlq0-gE4-47" value="Param&lt;div&gt;Ctrl&lt;/div&gt;" style="edgeLabel;html=1;align=center;verticalAlign=middle;resizable=0;points=[];" vertex="1" connectable="0" parent="rVYP4_xKBBUVtlq0-gE4-46">
          <mxGeometry x="-0.1304" relative="1" as="geometry">
            <mxPoint y="6" as="offset" />
          </mxGeometry>
        </mxCell>
        <mxCell id="rVYP4_xKBBUVtlq0-gE4-48" style="edgeStyle=orthogonalEdgeStyle;rounded=0;orthogonalLoop=1;jettySize=auto;html=1;exitX=1;exitY=0.25;exitDx=0;exitDy=0;entryX=0;entryY=0.5;entryDx=0;entryDy=0;" edge="1" parent="1" source="rVYP4_xKBBUVtlq0-gE4-54" target="rVYP4_xKBBUVtlq0-gE4-69">
          <mxGeometry relative="1" as="geometry">
            <Array as="points">
              <mxPoint x="290" y="1040" />
              <mxPoint x="640" y="1040" />
              <mxPoint x="640" y="1160" />
            </Array>
          </mxGeometry>
        </mxCell>
        <mxCell id="rVYP4_xKBBUVtlq0-gE4-49" value="Param Control" style="edgeLabel;html=1;align=center;verticalAlign=middle;resizable=0;points=[];" vertex="1" connectable="0" parent="rVYP4_xKBBUVtlq0-gE4-48">
          <mxGeometry x="-0.1671" y="2" relative="1" as="geometry">
            <mxPoint as="offset" />
          </mxGeometry>
        </mxCell>
        <mxCell id="rVYP4_xKBBUVtlq0-gE4-50" style="edgeStyle=orthogonalEdgeStyle;rounded=0;orthogonalLoop=1;jettySize=auto;html=1;exitX=1;exitY=0.5;exitDx=0;exitDy=0;" edge="1" parent="1" source="rVYP4_xKBBUVtlq0-gE4-54" target="rVYP4_xKBBUVtlq0-gE4-61">
          <mxGeometry relative="1" as="geometry">
            <Array as="points">
              <mxPoint x="350" y="1170" />
            </Array>
          </mxGeometry>
        </mxCell>
        <mxCell id="rVYP4_xKBBUVtlq0-gE4-51" value="Param&lt;div&gt;Ctrl&lt;/div&gt;" style="edgeLabel;html=1;align=center;verticalAlign=middle;resizable=0;points=[];" vertex="1" connectable="0" parent="rVYP4_xKBBUVtlq0-gE4-50">
          <mxGeometry x="0.0943" relative="1" as="geometry">
            <mxPoint x="11" as="offset" />
          </mxGeometry>
        </mxCell>
        <mxCell id="rVYP4_xKBBUVtlq0-gE4-52" style="edgeStyle=orthogonalEdgeStyle;rounded=0;orthogonalLoop=1;jettySize=auto;html=1;exitX=0.5;exitY=1;exitDx=0;exitDy=0;entryX=0;entryY=0.5;entryDx=0;entryDy=0;" edge="1" parent="1" source="rVYP4_xKBBUVtlq0-gE4-54" target="rVYP4_xKBBUVtlq0-gE4-81">
          <mxGeometry relative="1" as="geometry">
            <mxPoint x="712.5" y="1679.065" as="targetPoint" />
          </mxGeometry>
        </mxCell>
        <mxCell id="rVYP4_xKBBUVtlq0-gE4-53" value="Parameter control" style="edgeLabel;html=1;align=center;verticalAlign=middle;resizable=0;points=[];" vertex="1" connectable="0" parent="rVYP4_xKBBUVtlq0-gE4-52">
          <mxGeometry x="0.4336" y="-1" relative="1" as="geometry">
            <mxPoint as="offset" />
          </mxGeometry>
        </mxCell>
        <mxCell id="rVYP4_xKBBUVtlq0-gE4-54" value="" style="rounded=1;whiteSpace=wrap;html=1;" vertex="1" parent="1">
          <mxGeometry x="140" y="820" width="210" height="640" as="geometry" />
        </mxCell>
        <mxCell id="rVYP4_xKBBUVtlq0-gE4-55" value="&lt;h1&gt;MIDI Controller&lt;/h1&gt;" style="text;html=1;align=center;verticalAlign=middle;whiteSpace=wrap;rounded=0;fontSize=16;" vertex="1" parent="1">
          <mxGeometry x="195" y="850" width="100" height="30" as="geometry" />
        </mxCell>
        <mxCell id="rVYP4_xKBBUVtlq0-gE4-56" value="" style="rounded=1;whiteSpace=wrap;html=1;" vertex="1" parent="1">
          <mxGeometry x="160" y="960" width="170" height="220" as="geometry" />
        </mxCell>
        <mxCell id="rVYP4_xKBBUVtlq0-gE4-57" value="" style="rounded=1;whiteSpace=wrap;html=1;" vertex="1" parent="1">
          <mxGeometry x="160" y="1210" width="170" height="220" as="geometry" />
        </mxCell>
        <mxCell id="rVYP4_xKBBUVtlq0-gE4-58" style="edgeStyle=orthogonalEdgeStyle;rounded=0;orthogonalLoop=1;jettySize=auto;html=1;exitX=0.5;exitY=1;exitDx=0;exitDy=0;entryX=0.114;entryY=0.023;entryDx=0;entryDy=0;entryPerimeter=0;" edge="1" parent="1" source="rVYP4_xKBBUVtlq0-gE4-61" target="rVYP4_xKBBUVtlq0-gE4-28">
          <mxGeometry relative="1" as="geometry" />
        </mxCell>
        <mxCell id="rVYP4_xKBBUVtlq0-gE4-59" value="Automated Param Control" style="edgeLabel;html=1;align=center;verticalAlign=middle;resizable=0;points=[];" vertex="1" connectable="0" parent="rVYP4_xKBBUVtlq0-gE4-58">
          <mxGeometry x="0.1917" y="4" relative="1" as="geometry">
            <mxPoint y="-10" as="offset" />
          </mxGeometry>
        </mxCell>
        <mxCell id="rVYP4_xKBBUVtlq0-gE4-60" value="" style="group" vertex="1" connectable="0" parent="1">
          <mxGeometry x="410" y="1060" width="190" height="220" as="geometry" />
        </mxCell>
        <mxCell id="rVYP4_xKBBUVtlq0-gE4-61" value="" style="rounded=1;whiteSpace=wrap;html=1;" vertex="1" parent="rVYP4_xKBBUVtlq0-gE4-60">
          <mxGeometry width="190" height="220" as="geometry" />
        </mxCell>
        <mxCell id="rVYP4_xKBBUVtlq0-gE4-62" value="Sine" style="rounded=1;whiteSpace=wrap;html=1;" vertex="1" parent="rVYP4_xKBBUVtlq0-gE4-60">
          <mxGeometry x="32.5" y="50" width="120" height="20" as="geometry" />
        </mxCell>
        <mxCell id="rVYP4_xKBBUVtlq0-gE4-63" value="Square" style="rounded=1;whiteSpace=wrap;html=1;" vertex="1" parent="rVYP4_xKBBUVtlq0-gE4-60">
          <mxGeometry x="32.5" y="80" width="120" height="20" as="geometry" />
        </mxCell>
        <mxCell id="rVYP4_xKBBUVtlq0-gE4-64" value="Triangle" style="rounded=1;whiteSpace=wrap;html=1;" vertex="1" parent="rVYP4_xKBBUVtlq0-gE4-60">
          <mxGeometry x="32.5" y="110" width="120" height="20" as="geometry" />
        </mxCell>
        <mxCell id="rVYP4_xKBBUVtlq0-gE4-65" value="Sawtooth" style="rounded=1;whiteSpace=wrap;html=1;" vertex="1" parent="rVYP4_xKBBUVtlq0-gE4-60">
          <mxGeometry x="32.5" y="140" width="120" height="20" as="geometry" />
        </mxCell>
        <mxCell id="rVYP4_xKBBUVtlq0-gE4-66" value="Perlin Noise" style="rounded=1;whiteSpace=wrap;html=1;" vertex="1" parent="rVYP4_xKBBUVtlq0-gE4-60">
          <mxGeometry x="32.5" y="170" width="120" height="20" as="geometry" />
        </mxCell>
        <mxCell id="rVYP4_xKBBUVtlq0-gE4-67" value="&lt;h1&gt;Oscillators&lt;/h1&gt;" style="text;html=1;align=center;verticalAlign=middle;whiteSpace=wrap;rounded=0;fontSize=16;" vertex="1" parent="rVYP4_xKBBUVtlq0-gE4-60">
          <mxGeometry x="45" y="10" width="100" height="30" as="geometry" />
        </mxCell>
        <mxCell id="rVYP4_xKBBUVtlq0-gE4-68" value="" style="group;fillColor=default;" vertex="1" connectable="0" parent="1">
          <mxGeometry x="690" y="1060" width="540" height="200" as="geometry" />
        </mxCell>
        <mxCell id="rVYP4_xKBBUVtlq0-gE4-69" value="" style="rounded=1;whiteSpace=wrap;html=1;fillColor=none;" vertex="1" parent="rVYP4_xKBBUVtlq0-gE4-68">
          <mxGeometry width="540" height="200" as="geometry" />
        </mxCell>
        <mxCell id="rVYP4_xKBBUVtlq0-gE4-70" value="&lt;span style=&quot;color: rgba(0, 0, 0, 0); font-family: monospace; font-size: 0px; text-align: start; text-wrap-mode: nowrap;&quot;&gt;Sl&lt;/span&gt;" style="rounded=1;whiteSpace=wrap;html=1;fillColor=none;" vertex="1" parent="rVYP4_xKBBUVtlq0-gE4-68">
          <mxGeometry x="190" y="50" width="160" height="130" as="geometry" />
        </mxCell>
        <mxCell id="rVYP4_xKBBUVtlq0-gE4-71" style="edgeStyle=orthogonalEdgeStyle;rounded=0;orthogonalLoop=1;jettySize=auto;html=1;exitX=1;exitY=0.5;exitDx=0;exitDy=0;entryX=0;entryY=0.5;entryDx=0;entryDy=0;" edge="1" parent="rVYP4_xKBBUVtlq0-gE4-68" source="rVYP4_xKBBUVtlq0-gE4-72" target="rVYP4_xKBBUVtlq0-gE4-70">
          <mxGeometry relative="1" as="geometry" />
        </mxCell>
        <mxCell id="rVYP4_xKBBUVtlq0-gE4-72" value="&lt;h2&gt;Source A&lt;/h2&gt;" style="rounded=1;whiteSpace=wrap;html=1;" vertex="1" parent="rVYP4_xKBBUVtlq0-gE4-68">
          <mxGeometry x="20" y="50" width="120" height="130" as="geometry" />
        </mxCell>
        <mxCell id="rVYP4_xKBBUVtlq0-gE4-73" style="edgeStyle=orthogonalEdgeStyle;rounded=0;orthogonalLoop=1;jettySize=auto;html=1;exitX=0;exitY=0.5;exitDx=0;exitDy=0;entryX=1;entryY=0.5;entryDx=0;entryDy=0;" edge="1" parent="rVYP4_xKBBUVtlq0-gE4-68" source="rVYP4_xKBBUVtlq0-gE4-74" target="rVYP4_xKBBUVtlq0-gE4-70">
          <mxGeometry relative="1" as="geometry" />
        </mxCell>
        <mxCell id="rVYP4_xKBBUVtlq0-gE4-74" value="&lt;h2&gt;Source B&lt;/h2&gt;" style="rounded=1;whiteSpace=wrap;html=1;" vertex="1" parent="rVYP4_xKBBUVtlq0-gE4-68">
          <mxGeometry x="400" y="50" width="120" height="130" as="geometry" />
        </mxCell>
        <mxCell id="rVYP4_xKBBUVtlq0-gE4-75" value="Alpha" style="rounded=1;whiteSpace=wrap;html=1;" vertex="1" parent="rVYP4_xKBBUVtlq0-gE4-68">
          <mxGeometry x="210" y="90" width="120" height="20" as="geometry" />
        </mxCell>
        <mxCell id="rVYP4_xKBBUVtlq0-gE4-76" value="Chroma Keying" style="rounded=1;whiteSpace=wrap;html=1;" vertex="1" parent="rVYP4_xKBBUVtlq0-gE4-68">
          <mxGeometry x="210" y="120" width="120" height="20" as="geometry" />
        </mxCell>
        <mxCell id="rVYP4_xKBBUVtlq0-gE4-77" value="Luma Keying" style="rounded=1;whiteSpace=wrap;html=1;" vertex="1" parent="rVYP4_xKBBUVtlq0-gE4-68">
          <mxGeometry x="210" y="150" width="120" height="20" as="geometry" />
        </mxCell>
        <mxCell id="rVYP4_xKBBUVtlq0-gE4-78" value="&lt;h3&gt;Blend Modes&lt;/h3&gt;" style="text;html=1;align=center;verticalAlign=middle;whiteSpace=wrap;rounded=0;fontSize=16;" vertex="1" parent="rVYP4_xKBBUVtlq0-gE4-68">
          <mxGeometry x="210" y="50" width="120" height="30" as="geometry" />
        </mxCell>
        <mxCell id="rVYP4_xKBBUVtlq0-gE4-79" value="&lt;h1&gt;Mixer&lt;/h1&gt;" style="text;html=1;align=center;verticalAlign=middle;whiteSpace=wrap;rounded=0;fontSize=16;" vertex="1" parent="rVYP4_xKBBUVtlq0-gE4-68">
          <mxGeometry x="220" y="10" width="100" height="30" as="geometry" />
        </mxCell>
        <mxCell id="rVYP4_xKBBUVtlq0-gE4-80" style="edgeStyle=orthogonalEdgeStyle;rounded=0;orthogonalLoop=1;jettySize=auto;html=1;exitX=1;exitY=0.5;exitDx=0;exitDy=0;entryX=0.5;entryY=0;entryDx=0;entryDy=0;" edge="1" parent="1" source="rVYP4_xKBBUVtlq0-gE4-81" target="rVYP4_xKBBUVtlq0-gE4-129">
          <mxGeometry relative="1" as="geometry" />
        </mxCell>
        <mxCell id="rVYP4_xKBBUVtlq0-gE4-81" value="" style="rounded=1;whiteSpace=wrap;html=1;fillColor=default;" vertex="1" parent="1">
          <mxGeometry x="460" y="1550" width="820" height="230" as="geometry" />
        </mxCell>
        <mxCell id="rVYP4_xKBBUVtlq0-gE4-82" style="edgeStyle=orthogonalEdgeStyle;rounded=0;orthogonalLoop=1;jettySize=auto;html=1;exitX=1;exitY=0.5;exitDx=0;exitDy=0;entryX=0;entryY=0.5;entryDx=0;entryDy=0;" edge="1" parent="1" source="rVYP4_xKBBUVtlq0-gE4-83" target="rVYP4_xKBBUVtlq0-gE4-85">
          <mxGeometry relative="1" as="geometry" />
        </mxCell>
        <mxCell id="rVYP4_xKBBUVtlq0-gE4-83" value="&lt;h2&gt;&lt;span style=&quot;background-color: transparent; color: light-dark(rgb(0, 0, 0), rgb(255, 255, 255)); font-size: 12px; font-weight: normal;&quot;&gt;&lt;br&gt;&lt;/span&gt;&lt;/h2&gt;&lt;h2&gt;&lt;span style=&quot;background-color: transparent; color: light-dark(rgb(0, 0, 0), rgb(255, 255, 255)); font-size: 12px; font-weight: normal;&quot;&gt;Mixes modified frame with raw frame&lt;/span&gt;&lt;/h2&gt;" style="rounded=1;whiteSpace=wrap;html=1;" vertex="1" parent="1">
          <mxGeometry x="490" y="1616.26" width="210" height="120" as="geometry" />
        </mxCell>
        <mxCell id="rVYP4_xKBBUVtlq0-gE4-84" style="edgeStyle=orthogonalEdgeStyle;rounded=0;orthogonalLoop=1;jettySize=auto;html=1;exitX=1;exitY=0.5;exitDx=0;exitDy=0;entryX=0;entryY=0.5;entryDx=0;entryDy=0;" edge="1" parent="1" source="rVYP4_xKBBUVtlq0-gE4-85" target="rVYP4_xKBBUVtlq0-gE4-89">
          <mxGeometry relative="1" as="geometry" />
        </mxCell>
        <mxCell id="rVYP4_xKBBUVtlq0-gE4-85" value="&lt;h2&gt;&lt;br&gt;&lt;/h2&gt;&lt;div&gt;Mixes current alpha-blended frame with previous alpha-blended frame&lt;/div&gt;" style="rounded=1;whiteSpace=wrap;html=1;" vertex="1" parent="1">
          <mxGeometry x="760" y="1616.26" width="210" height="120" as="geometry" />
        </mxCell>
        <mxCell id="rVYP4_xKBBUVtlq0-gE4-86" value="&lt;h3&gt;Alpha Blend&lt;/h3&gt;" style="text;html=1;align=center;verticalAlign=middle;whiteSpace=wrap;rounded=0;fontSize=16;" vertex="1" parent="1">
          <mxGeometry x="535" y="1636.26" width="120" height="30" as="geometry" />
        </mxCell>
        <mxCell id="rVYP4_xKBBUVtlq0-gE4-87" value="&lt;h3&gt;Temporal Filter&lt;/h3&gt;" style="text;html=1;align=center;verticalAlign=middle;whiteSpace=wrap;rounded=0;fontSize=16;" vertex="1" parent="1">
          <mxGeometry x="790" y="1630" width="150" height="30" as="geometry" />
        </mxCell>
        <mxCell id="rVYP4_xKBBUVtlq0-gE4-88" style="edgeStyle=orthogonalEdgeStyle;rounded=0;orthogonalLoop=1;jettySize=auto;html=1;exitX=0.999;exitY=0.551;exitDx=0;exitDy=0;entryX=0.5;entryY=0;entryDx=0;entryDy=0;exitPerimeter=0;" edge="1" parent="1" source="rVYP4_xKBBUVtlq0-gE4-81" target="rVYP4_xKBBUVtlq0-gE4-95">
          <mxGeometry relative="1" as="geometry">
            <Array as="points">
              <mxPoint x="1279" y="1650" />
              <mxPoint x="1330" y="1650" />
              <mxPoint x="1330" y="1860" />
              <mxPoint x="505" y="1860" />
            </Array>
          </mxGeometry>
        </mxCell>
        <mxCell id="rVYP4_xKBBUVtlq0-gE4-89" value="&lt;div&gt;&lt;br&gt;&lt;/div&gt;&lt;div&gt;&lt;br&gt;&lt;/div&gt;&lt;div&gt;&lt;br&gt;&lt;/div&gt;Stores temporally-filtered frame into variable length frame buffer and averages them" style="rounded=1;whiteSpace=wrap;html=1;" vertex="1" parent="1">
          <mxGeometry x="1030" y="1616.26" width="210" height="120" as="geometry" />
        </mxCell>
        <mxCell id="rVYP4_xKBBUVtlq0-gE4-90" value="&lt;h3&gt;Frame Buffer&lt;/h3&gt;" style="text;html=1;align=center;verticalAlign=middle;whiteSpace=wrap;rounded=0;fontSize=16;" vertex="1" parent="1">
          <mxGeometry x="1065" y="1622.52" width="150" height="30" as="geometry" />
        </mxCell>
        <mxCell id="rVYP4_xKBBUVtlq0-gE4-91" value="&lt;h1&gt;Feedback&lt;/h1&gt;" style="text;html=1;align=center;verticalAlign=middle;whiteSpace=wrap;rounded=0;fontSize=16;" vertex="1" parent="1">
          <mxGeometry x="815" y="1560" width="100" height="30" as="geometry" />
        </mxCell>
        <mxCell id="rVYP4_xKBBUVtlq0-gE4-92" value="Mixed,Raw frame" style="edgeStyle=orthogonalEdgeStyle;rounded=0;orthogonalLoop=1;jettySize=auto;html=1;exitX=1;exitY=0.5;exitDx=0;exitDy=0;entryX=0.5;entryY=0;entryDx=0;entryDy=0;" edge="1" parent="1" source="rVYP4_xKBBUVtlq0-gE4-69" target="rVYP4_xKBBUVtlq0-gE4-83">
          <mxGeometry x="-0.9099" relative="1" as="geometry">
            <Array as="points">
              <mxPoint x="1350" y="1160" />
              <mxPoint x="1350" y="1520" />
              <mxPoint x="595" y="1520" />
            </Array>
            <mxPoint as="offset" />
          </mxGeometry>
        </mxCell>
        <mxCell id="rVYP4_xKBBUVtlq0-gE4-93" value="Raw Frame" style="edgeLabel;html=1;align=center;verticalAlign=middle;resizable=0;points=[];" vertex="1" connectable="0" parent="rVYP4_xKBBUVtlq0-gE4-92">
          <mxGeometry x="0.8135" y="-1" relative="1" as="geometry">
            <mxPoint x="27" as="offset" />
          </mxGeometry>
        </mxCell>
        <mxCell id="rVYP4_xKBBUVtlq0-gE4-94" style="edgeStyle=orthogonalEdgeStyle;rounded=0;orthogonalLoop=1;jettySize=auto;html=1;exitX=1;exitY=0.5;exitDx=0;exitDy=0;entryX=0;entryY=0.5;entryDx=0;entryDy=0;" edge="1" parent="1" source="rVYP4_xKBBUVtlq0-gE4-95" target="rVYP4_xKBBUVtlq0-gE4-97">
          <mxGeometry relative="1" as="geometry" />
        </mxCell>
        <mxCell id="rVYP4_xKBBUVtlq0-gE4-95" value="HDMI Output B" style="rounded=1;whiteSpace=wrap;html=1;" vertex="1" parent="1">
          <mxGeometry x="445" y="1927.48" width="120" height="60" as="geometry" />
        </mxCell>
        <mxCell id="rVYP4_xKBBUVtlq0-gE4-96" style="edgeStyle=orthogonalEdgeStyle;rounded=0;orthogonalLoop=1;jettySize=auto;html=1;exitX=1;exitY=0.5;exitDx=0;exitDy=0;entryX=0;entryY=0.5;entryDx=0;entryDy=0;" edge="1" parent="1" source="rVYP4_xKBBUVtlq0-gE4-127" target="rVYP4_xKBBUVtlq0-gE4-2">
          <mxGeometry relative="1" as="geometry" />
        </mxCell>
        <mxCell id="rVYP4_xKBBUVtlq0-gE4-97" value="HDMI -&amp;gt; VGA Converter" style="rounded=1;whiteSpace=wrap;html=1;" vertex="1" parent="1">
          <mxGeometry x="623.5" y="1927.48" width="120" height="60" as="geometry" />
        </mxCell>
        <mxCell id="rVYP4_xKBBUVtlq0-gE4-98" style="edgeStyle=orthogonalEdgeStyle;rounded=0;orthogonalLoop=1;jettySize=auto;html=1;exitX=1;exitY=0.5;exitDx=0;exitDy=0;entryX=0.75;entryY=0;entryDx=0;entryDy=0;" edge="1" parent="1" source="rVYP4_xKBBUVtlq0-gE4-99" target="rVYP4_xKBBUVtlq0-gE4-11">
          <mxGeometry relative="1" as="geometry">
            <Array as="points">
              <mxPoint x="1410" y="1957" />
              <mxPoint x="1410" y="790" />
              <mxPoint x="755" y="790" />
            </Array>
          </mxGeometry>
        </mxCell>
        <mxCell id="rVYP4_xKBBUVtlq0-gE4-99" value="&lt;h3&gt;VC9900 Synth&amp;nbsp;&lt;br&gt;(VGA to HDMI)&lt;/h3&gt;" style="rounded=1;whiteSpace=wrap;html=1;" vertex="1" parent="1">
          <mxGeometry x="1225" y="1927.48" width="120" height="60" as="geometry" />
        </mxCell>
        <mxCell id="rVYP4_xKBBUVtlq0-gE4-100" style="edgeStyle=orthogonalEdgeStyle;rounded=0;orthogonalLoop=1;jettySize=auto;html=1;exitX=0.5;exitY=1;exitDx=0;exitDy=0;entryX=0.25;entryY=0;entryDx=0;entryDy=0;" edge="1" parent="1" source="rVYP4_xKBBUVtlq0-gE4-28" target="rVYP4_xKBBUVtlq0-gE4-83">
          <mxGeometry relative="1" as="geometry">
            <mxPoint x="857.5" y="1616.2600000000002" as="targetPoint" />
            <Array as="points">
              <mxPoint x="860" y="1490" />
              <mxPoint x="543" y="1490" />
            </Array>
          </mxGeometry>
        </mxCell>
        <mxCell id="rVYP4_xKBBUVtlq0-gE4-101" value="Modified frame" style="edgeLabel;html=1;align=center;verticalAlign=middle;resizable=0;points=[];" vertex="1" connectable="0" parent="rVYP4_xKBBUVtlq0-gE4-100">
          <mxGeometry x="0.1606" y="3" relative="1" as="geometry">
            <mxPoint x="35" y="-3" as="offset" />
          </mxGeometry>
        </mxCell>
        <mxCell id="rVYP4_xKBBUVtlq0-gE4-102" style="edgeStyle=orthogonalEdgeStyle;rounded=0;orthogonalLoop=1;jettySize=auto;html=1;exitX=1;exitY=0.5;exitDx=0;exitDy=0;entryX=0;entryY=0.5;entryDx=0;entryDy=0;" edge="1" parent="1" target="rVYP4_xKBBUVtlq0-gE4-99">
          <mxGeometry relative="1" as="geometry">
            <mxPoint x="1170" y="1957.48" as="sourcePoint" />
          </mxGeometry>
        </mxCell>
        <mxCell id="rVYP4_xKBBUVtlq0-gE4-103" value="Internal feedback switch" style="ellipse;whiteSpace=wrap;html=1;aspect=fixed;" vertex="1" parent="1">
          <mxGeometry x="1060" y="1921.22" width="40" height="40" as="geometry" />
        </mxCell>
        <mxCell id="rVYP4_xKBBUVtlq0-gE4-104" value="" style="rounded=0;whiteSpace=wrap;html=1;fillColor=#6a00ff;strokeColor=#3700CC;fillStyle=cross-hatch;fontColor=#ffffff;" vertex="1" parent="1">
          <mxGeometry x="130" y="400" width="740" height="320" as="geometry" />
        </mxCell>
        <mxCell id="rVYP4_xKBBUVtlq0-gE4-105" style="edgeStyle=orthogonalEdgeStyle;rounded=0;orthogonalLoop=1;jettySize=auto;html=1;exitX=0.5;exitY=1;exitDx=0;exitDy=0;entryX=0.5;entryY=0;entryDx=0;entryDy=0;" edge="1" parent="1" target="rVYP4_xKBBUVtlq0-gE4-113">
          <mxGeometry relative="1" as="geometry">
            <mxPoint x="460.0000000000009" y="530" as="sourcePoint" />
          </mxGeometry>
        </mxCell>
        <mxCell id="rVYP4_xKBBUVtlq0-gE4-106" value="" style="rounded=1;whiteSpace=wrap;html=1;" vertex="1" parent="1">
          <mxGeometry x="315" y="410" width="290" height="120" as="geometry" />
        </mxCell>
        <mxCell id="rVYP4_xKBBUVtlq0-gE4-107" value="&lt;h3&gt;Composite Source A&lt;/h3&gt;" style="rounded=1;whiteSpace=wrap;html=1;" vertex="1" parent="1">
          <mxGeometry x="335" y="450" width="120" height="60" as="geometry" />
        </mxCell>
        <mxCell id="rVYP4_xKBBUVtlq0-gE4-108" value="&lt;h3&gt;Composite Source A&lt;/h3&gt;" style="rounded=1;whiteSpace=wrap;html=1;" vertex="1" parent="1">
          <mxGeometry x="465" y="450" width="120" height="60" as="geometry" />
        </mxCell>
        <mxCell id="rVYP4_xKBBUVtlq0-gE4-109" style="edgeStyle=orthogonalEdgeStyle;rounded=0;orthogonalLoop=1;jettySize=auto;html=1;exitX=1;exitY=0.5;exitDx=0;exitDy=0;entryX=0;entryY=0.5;entryDx=0;entryDy=0;" edge="1" parent="1" source="rVYP4_xKBBUVtlq0-gE4-110" target="rVYP4_xKBBUVtlq0-gE4-107">
          <mxGeometry relative="1" as="geometry" />
        </mxCell>
        <mxCell id="rVYP4_xKBBUVtlq0-gE4-110" value="&lt;h3&gt;RecurBOY&lt;/h3&gt;" style="rounded=1;whiteSpace=wrap;html=1;" vertex="1" parent="1">
          <mxGeometry x="140" y="450" width="120" height="60" as="geometry" />
        </mxCell>
        <mxCell id="rVYP4_xKBBUVtlq0-gE4-111" value="&lt;h2&gt;Klompf Dirty Composite Mixer&lt;/h2&gt;" style="text;html=1;align=center;verticalAlign=middle;whiteSpace=wrap;rounded=0;" vertex="1" parent="1">
          <mxGeometry x="315" y="410" width="270" height="30" as="geometry" />
        </mxCell>
        <mxCell id="rVYP4_xKBBUVtlq0-gE4-112" style="edgeStyle=orthogonalEdgeStyle;rounded=0;orthogonalLoop=1;jettySize=auto;html=1;exitX=0.5;exitY=1;exitDx=0;exitDy=0;entryX=0.5;entryY=0;entryDx=0;entryDy=0;" edge="1" parent="1" source="rVYP4_xKBBUVtlq0-gE4-113" target="rVYP4_xKBBUVtlq0-gE4-115">
          <mxGeometry relative="1" as="geometry" />
        </mxCell>
        <mxCell id="rVYP4_xKBBUVtlq0-gE4-113" value="&lt;h3&gt;_RUPTURE_&lt;/h3&gt;" style="rounded=1;whiteSpace=wrap;html=1;" vertex="1" parent="1">
          <mxGeometry x="405" y="560" width="120" height="60" as="geometry" />
        </mxCell>
        <mxCell id="rVYP4_xKBBUVtlq0-gE4-114" style="edgeStyle=orthogonalEdgeStyle;rounded=0;orthogonalLoop=1;jettySize=auto;html=1;exitX=1;exitY=0.5;exitDx=0;exitDy=0;entryX=0;entryY=0.5;entryDx=0;entryDy=0;" edge="1" parent="1" source="rVYP4_xKBBUVtlq0-gE4-115" target="rVYP4_xKBBUVtlq0-gE4-122">
          <mxGeometry relative="1" as="geometry" />
        </mxCell>
        <mxCell id="rVYP4_xKBBUVtlq0-gE4-115" value="&lt;h3&gt;Archer Enhancer&lt;/h3&gt;" style="rounded=1;whiteSpace=wrap;html=1;" vertex="1" parent="1">
          <mxGeometry x="405" y="640" width="120" height="60" as="geometry" />
        </mxCell>
        <mxCell id="rVYP4_xKBBUVtlq0-gE4-116" value="&lt;h3&gt;Syncope&lt;/h3&gt;" style="rounded=1;whiteSpace=wrap;html=1;" vertex="1" parent="1">
          <mxGeometry x="682" y="570" width="120" height="110" as="geometry" />
        </mxCell>
        <mxCell id="rVYP4_xKBBUVtlq0-gE4-117" value="IN" style="ellipse;whiteSpace=wrap;html=1;aspect=fixed;" vertex="1" parent="1">
          <mxGeometry x="792" y="570" width="20" height="20" as="geometry" />
        </mxCell>
        <mxCell id="rVYP4_xKBBUVtlq0-gE4-118" style="edgeStyle=orthogonalEdgeStyle;rounded=0;orthogonalLoop=1;jettySize=auto;html=1;exitX=0.5;exitY=1;exitDx=0;exitDy=0;entryX=0.5;entryY=0;entryDx=0;entryDy=0;" edge="1" parent="1" source="rVYP4_xKBBUVtlq0-gE4-119" target="rVYP4_xKBBUVtlq0-gE4-14">
          <mxGeometry relative="1" as="geometry">
            <Array as="points">
              <mxPoint x="802" y="750" />
              <mxPoint x="595" y="750" />
            </Array>
          </mxGeometry>
        </mxCell>
        <mxCell id="rVYP4_xKBBUVtlq0-gE4-119" value="Out" style="ellipse;whiteSpace=wrap;html=1;aspect=fixed;" vertex="1" parent="1">
          <mxGeometry x="792" y="660" width="20" height="20" as="geometry" />
        </mxCell>
        <mxCell id="rVYP4_xKBBUVtlq0-gE4-120" style="edgeStyle=orthogonalEdgeStyle;rounded=0;orthogonalLoop=1;jettySize=auto;html=1;exitX=0.5;exitY=0;exitDx=0;exitDy=0;entryX=1;entryY=0.5;entryDx=0;entryDy=0;" edge="1" parent="1" source="rVYP4_xKBBUVtlq0-gE4-121" target="rVYP4_xKBBUVtlq0-gE4-108">
          <mxGeometry relative="1" as="geometry" />
        </mxCell>
        <mxCell id="rVYP4_xKBBUVtlq0-gE4-121" value="Send" style="ellipse;whiteSpace=wrap;html=1;aspect=fixed;" vertex="1" parent="1">
          <mxGeometry x="672" y="570" width="20" height="20" as="geometry" />
        </mxCell>
        <mxCell id="rVYP4_xKBBUVtlq0-gE4-122" value="Return" style="ellipse;whiteSpace=wrap;html=1;aspect=fixed;" vertex="1" parent="1">
          <mxGeometry x="672" y="660" width="20" height="20" as="geometry" />
        </mxCell>
        <mxCell id="rVYP4_xKBBUVtlq0-gE4-123" style="edgeStyle=orthogonalEdgeStyle;rounded=0;orthogonalLoop=1;jettySize=auto;html=1;exitX=0.5;exitY=1;exitDx=0;exitDy=0;entryX=0.5;entryY=0;entryDx=0;entryDy=0;" edge="1" parent="1" source="rVYP4_xKBBUVtlq0-gE4-124" target="rVYP4_xKBBUVtlq0-gE4-117">
          <mxGeometry relative="1" as="geometry" />
        </mxCell>
        <mxCell id="rVYP4_xKBBUVtlq0-gE4-124" value="&lt;h3&gt;CCTV Camera&lt;/h3&gt;" style="rounded=1;whiteSpace=wrap;html=1;" vertex="1" parent="1">
          <mxGeometry x="742" y="440" width="120" height="60" as="geometry" />
        </mxCell>
        <mxCell id="rVYP4_xKBBUVtlq0-gE4-125" value="&lt;h3&gt;HDMI Display&lt;/h3&gt;" style="rounded=1;whiteSpace=wrap;html=1;" vertex="1" parent="1">
          <mxGeometry x="1110" y="400" width="290" height="190" as="geometry" />
        </mxCell>
        <mxCell id="rVYP4_xKBBUVtlq0-gE4-126" value="" style="edgeStyle=orthogonalEdgeStyle;rounded=0;orthogonalLoop=1;jettySize=auto;html=1;exitX=1;exitY=0.5;exitDx=0;exitDy=0;entryX=0;entryY=0.5;entryDx=0;entryDy=0;" edge="1" parent="1" source="rVYP4_xKBBUVtlq0-gE4-97" target="rVYP4_xKBBUVtlq0-gE4-127">
          <mxGeometry relative="1" as="geometry">
            <mxPoint x="744" y="1957" as="sourcePoint" />
            <mxPoint x="990" y="1957" as="targetPoint" />
          </mxGeometry>
        </mxCell>
        <mxCell id="rVYP4_xKBBUVtlq0-gE4-127" value="&lt;h3&gt;PixelSlasher&lt;/h3&gt;" style="rounded=1;whiteSpace=wrap;html=1;" vertex="1" parent="1">
          <mxGeometry x="810" y="1927.48" width="120" height="60" as="geometry" />
        </mxCell>
        <mxCell id="rVYP4_xKBBUVtlq0-gE4-128" style="edgeStyle=orthogonalEdgeStyle;rounded=0;orthogonalLoop=1;jettySize=auto;html=1;exitX=0.5;exitY=1;exitDx=0;exitDy=0;entryX=0.5;entryY=0;entryDx=0;entryDy=0;" edge="1" parent="1" source="rVYP4_xKBBUVtlq0-gE4-129" target="rVYP4_xKBBUVtlq0-gE4-130">
          <mxGeometry relative="1" as="geometry" />
        </mxCell>
        <mxCell id="rVYP4_xKBBUVtlq0-gE4-129" value="HDMI Output A" style="rounded=1;whiteSpace=wrap;html=1;" vertex="1" parent="1">
          <mxGeometry x="215" y="1930" width="120" height="60" as="geometry" />
        </mxCell>
        <mxCell id="rVYP4_xKBBUVtlq0-gE4-130" value="HDMI -&amp;gt; VGA Converter" style="rounded=1;whiteSpace=wrap;html=1;" vertex="1" parent="1">
          <mxGeometry x="215" y="2040" width="120" height="60" as="geometry" />
        </mxCell>
      </root>
    </mxGraphModel>
  </diagram>
</mxfile>
